<?xml version="1.0" encoding="utf-8" standalone="no"?>
<!DOCTYPE svg PUBLIC "-//W3C//DTD SVG 1.1//EN"
  "http://www.w3.org/Graphics/SVG/1.1/DTD/svg11.dtd">
<svg xmlns:xlink="http://www.w3.org/1999/xlink" width="864pt" height="432pt" viewBox="0 0 864 432" xmlns="http://www.w3.org/2000/svg" version="1.1">
 <metadata>
  <rdf:RDF xmlns:dc="http://purl.org/dc/elements/1.1/" xmlns:cc="http://creativecommons.org/ns#" xmlns:rdf="http://www.w3.org/1999/02/22-rdf-syntax-ns#">
   <cc:Work>
    <dc:type rdf:resource="http://purl.org/dc/dcmitype/StillImage"/>
    <dc:date>2025-04-05T13:25:27.538424</dc:date>
    <dc:format>image/svg+xml</dc:format>
    <dc:creator>
     <cc:Agent>
      <dc:title>Matplotlib v3.10.1, https://matplotlib.org/</dc:title>
     </cc:Agent>
    </dc:creator>
   </cc:Work>
  </rdf:RDF>
 </metadata>
 <defs>
  <style type="text/css">*{stroke-linejoin: round; stroke-linecap: butt}</style>
 </defs>
 <g id="figure_1">
  <g id="patch_1">
   <path d="M 0 432 
L 864 432 
L 864 0 
L 0 0 
z
" style="fill: #ffffff"/>
  </g>
  <g id="axes_1">
   <g id="patch_2">
    <path d="M 108 384.48 
L 777.6 384.48 
L 777.6 51.84 
L 108 51.84 
z
" style="fill: #ffffff"/>
   </g>
   <g id="matplotlib.axis_1">
    <g id="xtick_1">
     <g id="line2d_1">
      <path d="M 138.436364 384.48 
L 138.436364 51.84 
" clip-path="url(#peed03e881f)" style="fill: none; stroke: #cccccc; stroke-linecap: round"/>
     </g>
     <g id="text_1">
      <!-- had14 -->
      <g style="fill: #262626" transform="translate(129.633658 421.174443) rotate(-45) scale(0.11 -0.11)">
       <defs>
        <path id="ArialMT-68" d="M 422 0 
L 422 4581 
L 984 4581 
L 984 2938 
Q 1378 3394 1978 3394 
Q 2347 3394 2619 3248 
Q 2891 3103 3008 2847 
Q 3125 2591 3125 2103 
L 3125 0 
L 2563 0 
L 2563 2103 
Q 2563 2525 2380 2717 
Q 2197 2909 1863 2909 
Q 1613 2909 1392 2779 
Q 1172 2650 1078 2428 
Q 984 2206 984 1816 
L 984 0 
L 422 0 
z
" transform="scale(0.015625)"/>
        <path id="ArialMT-61" d="M 2588 409 
Q 2275 144 1986 34 
Q 1697 -75 1366 -75 
Q 819 -75 525 192 
Q 231 459 231 875 
Q 231 1119 342 1320 
Q 453 1522 633 1644 
Q 813 1766 1038 1828 
Q 1203 1872 1538 1913 
Q 2219 1994 2541 2106 
Q 2544 2222 2544 2253 
Q 2544 2597 2384 2738 
Q 2169 2928 1744 2928 
Q 1347 2928 1158 2789 
Q 969 2650 878 2297 
L 328 2372 
Q 403 2725 575 2942 
Q 747 3159 1072 3276 
Q 1397 3394 1825 3394 
Q 2250 3394 2515 3294 
Q 2781 3194 2906 3042 
Q 3031 2891 3081 2659 
Q 3109 2516 3109 2141 
L 3109 1391 
Q 3109 606 3145 398 
Q 3181 191 3288 0 
L 2700 0 
Q 2613 175 2588 409 
z
M 2541 1666 
Q 2234 1541 1622 1453 
Q 1275 1403 1131 1340 
Q 988 1278 909 1158 
Q 831 1038 831 891 
Q 831 666 1001 516 
Q 1172 366 1500 366 
Q 1825 366 2078 508 
Q 2331 650 2450 897 
Q 2541 1088 2541 1459 
L 2541 1666 
z
" transform="scale(0.015625)"/>
        <path id="ArialMT-64" d="M 2575 0 
L 2575 419 
Q 2259 -75 1647 -75 
Q 1250 -75 917 144 
Q 584 363 401 755 
Q 219 1147 219 1656 
Q 219 2153 384 2558 
Q 550 2963 881 3178 
Q 1213 3394 1622 3394 
Q 1922 3394 2156 3267 
Q 2391 3141 2538 2938 
L 2538 4581 
L 3097 4581 
L 3097 0 
L 2575 0 
z
M 797 1656 
Q 797 1019 1065 703 
Q 1334 388 1700 388 
Q 2069 388 2326 689 
Q 2584 991 2584 1609 
Q 2584 2291 2321 2609 
Q 2059 2928 1675 2928 
Q 1300 2928 1048 2622 
Q 797 2316 797 1656 
z
" transform="scale(0.015625)"/>
        <path id="ArialMT-31" d="M 2384 0 
L 1822 0 
L 1822 3584 
Q 1619 3391 1289 3197 
Q 959 3003 697 2906 
L 697 3450 
Q 1169 3672 1522 3987 
Q 1875 4303 2022 4600 
L 2384 4600 
L 2384 0 
z
" transform="scale(0.015625)"/>
        <path id="ArialMT-34" d="M 2069 0 
L 2069 1097 
L 81 1097 
L 81 1613 
L 2172 4581 
L 2631 4581 
L 2631 1613 
L 3250 1613 
L 3250 1097 
L 2631 1097 
L 2631 0 
L 2069 0 
z
M 2069 1613 
L 2069 3678 
L 634 1613 
L 2069 1613 
z
" transform="scale(0.015625)"/>
       </defs>
       <use xlink:href="#ArialMT-68"/>
       <use xlink:href="#ArialMT-61" transform="translate(55.615234 0)"/>
       <use xlink:href="#ArialMT-64" transform="translate(111.230469 0)"/>
       <use xlink:href="#ArialMT-31" transform="translate(166.845703 0)"/>
       <use xlink:href="#ArialMT-34" transform="translate(222.460938 0)"/>
      </g>
     </g>
    </g>
    <g id="xtick_2">
     <g id="line2d_2">
      <path d="M 214.527273 384.48 
L 214.527273 51.84 
" clip-path="url(#peed03e881f)" style="fill: none; stroke: #cccccc; stroke-linecap: round"/>
     </g>
     <g id="text_2">
      <!-- chr20c -->
      <g style="fill: #262626" transform="translate(204.865929 422.891718) rotate(-45) scale(0.11 -0.11)">
       <defs>
        <path id="ArialMT-63" d="M 2588 1216 
L 3141 1144 
Q 3050 572 2676 248 
Q 2303 -75 1759 -75 
Q 1078 -75 664 370 
Q 250 816 250 1647 
Q 250 2184 428 2587 
Q 606 2991 970 3192 
Q 1334 3394 1763 3394 
Q 2303 3394 2647 3120 
Q 2991 2847 3088 2344 
L 2541 2259 
Q 2463 2594 2264 2762 
Q 2066 2931 1784 2931 
Q 1359 2931 1093 2626 
Q 828 2322 828 1663 
Q 828 994 1084 691 
Q 1341 388 1753 388 
Q 2084 388 2306 591 
Q 2528 794 2588 1216 
z
" transform="scale(0.015625)"/>
        <path id="ArialMT-72" d="M 416 0 
L 416 3319 
L 922 3319 
L 922 2816 
Q 1116 3169 1280 3281 
Q 1444 3394 1641 3394 
Q 1925 3394 2219 3213 
L 2025 2691 
Q 1819 2813 1613 2813 
Q 1428 2813 1281 2702 
Q 1134 2591 1072 2394 
Q 978 2094 978 1738 
L 978 0 
L 416 0 
z
" transform="scale(0.015625)"/>
        <path id="ArialMT-32" d="M 3222 541 
L 3222 0 
L 194 0 
Q 188 203 259 391 
Q 375 700 629 1000 
Q 884 1300 1366 1694 
Q 2113 2306 2375 2664 
Q 2638 3022 2638 3341 
Q 2638 3675 2398 3904 
Q 2159 4134 1775 4134 
Q 1369 4134 1125 3890 
Q 881 3647 878 3216 
L 300 3275 
Q 359 3922 746 4261 
Q 1134 4600 1788 4600 
Q 2447 4600 2831 4234 
Q 3216 3869 3216 3328 
Q 3216 3053 3103 2787 
Q 2991 2522 2730 2228 
Q 2469 1934 1863 1422 
Q 1356 997 1212 845 
Q 1069 694 975 541 
L 3222 541 
z
" transform="scale(0.015625)"/>
        <path id="ArialMT-30" d="M 266 2259 
Q 266 3072 433 3567 
Q 600 4063 929 4331 
Q 1259 4600 1759 4600 
Q 2128 4600 2406 4451 
Q 2684 4303 2865 4023 
Q 3047 3744 3150 3342 
Q 3253 2941 3253 2259 
Q 3253 1453 3087 958 
Q 2922 463 2592 192 
Q 2263 -78 1759 -78 
Q 1097 -78 719 397 
Q 266 969 266 2259 
z
M 844 2259 
Q 844 1131 1108 757 
Q 1372 384 1759 384 
Q 2147 384 2411 759 
Q 2675 1134 2675 2259 
Q 2675 3391 2411 3762 
Q 2147 4134 1753 4134 
Q 1366 4134 1134 3806 
Q 844 3388 844 2259 
z
" transform="scale(0.015625)"/>
       </defs>
       <use xlink:href="#ArialMT-63"/>
       <use xlink:href="#ArialMT-68" transform="translate(50 0)"/>
       <use xlink:href="#ArialMT-72" transform="translate(105.615234 0)"/>
       <use xlink:href="#ArialMT-32" transform="translate(138.916016 0)"/>
       <use xlink:href="#ArialMT-30" transform="translate(194.53125 0)"/>
       <use xlink:href="#ArialMT-63" transform="translate(250.146484 0)"/>
      </g>
     </g>
    </g>
    <g id="xtick_3">
     <g id="line2d_3">
      <path d="M 290.618182 384.48 
L 290.618182 51.84 
" clip-path="url(#peed03e881f)" style="fill: none; stroke: #cccccc; stroke-linecap: round"/>
     </g>
     <g id="text_3">
      <!-- chr22a -->
      <g style="fill: #262626" transform="translate(280.738685 423.328025) rotate(-45) scale(0.11 -0.11)">
       <use xlink:href="#ArialMT-63"/>
       <use xlink:href="#ArialMT-68" transform="translate(50 0)"/>
       <use xlink:href="#ArialMT-72" transform="translate(105.615234 0)"/>
       <use xlink:href="#ArialMT-32" transform="translate(138.916016 0)"/>
       <use xlink:href="#ArialMT-32" transform="translate(194.53125 0)"/>
       <use xlink:href="#ArialMT-61" transform="translate(250.146484 0)"/>
      </g>
     </g>
    </g>
    <g id="xtick_4">
     <g id="line2d_4">
      <path d="M 366.709091 384.48 
L 366.709091 51.84 
" clip-path="url(#peed03e881f)" style="fill: none; stroke: #cccccc; stroke-linecap: round"/>
     </g>
     <g id="text_4">
      <!-- bur26b -->
      <g style="fill: #262626" transform="translate(356.61144 423.764332) rotate(-45) scale(0.11 -0.11)">
       <defs>
        <path id="ArialMT-62" d="M 941 0 
L 419 0 
L 419 4581 
L 981 4581 
L 981 2947 
Q 1338 3394 1891 3394 
Q 2197 3394 2470 3270 
Q 2744 3147 2920 2923 
Q 3097 2700 3197 2384 
Q 3297 2069 3297 1709 
Q 3297 856 2875 390 
Q 2453 -75 1863 -75 
Q 1275 -75 941 416 
L 941 0 
z
M 934 1684 
Q 934 1088 1097 822 
Q 1363 388 1816 388 
Q 2184 388 2453 708 
Q 2722 1028 2722 1663 
Q 2722 2313 2464 2622 
Q 2206 2931 1841 2931 
Q 1472 2931 1203 2611 
Q 934 2291 934 1684 
z
" transform="scale(0.015625)"/>
        <path id="ArialMT-75" d="M 2597 0 
L 2597 488 
Q 2209 -75 1544 -75 
Q 1250 -75 995 37 
Q 741 150 617 320 
Q 494 491 444 738 
Q 409 903 409 1263 
L 409 3319 
L 972 3319 
L 972 1478 
Q 972 1038 1006 884 
Q 1059 663 1231 536 
Q 1403 409 1656 409 
Q 1909 409 2131 539 
Q 2353 669 2445 892 
Q 2538 1116 2538 1541 
L 2538 3319 
L 3100 3319 
L 3100 0 
L 2597 0 
z
" transform="scale(0.015625)"/>
        <path id="ArialMT-36" d="M 3184 3459 
L 2625 3416 
Q 2550 3747 2413 3897 
Q 2184 4138 1850 4138 
Q 1581 4138 1378 3988 
Q 1113 3794 959 3422 
Q 806 3050 800 2363 
Q 1003 2672 1297 2822 
Q 1591 2972 1913 2972 
Q 2475 2972 2870 2558 
Q 3266 2144 3266 1488 
Q 3266 1056 3080 686 
Q 2894 316 2569 119 
Q 2244 -78 1831 -78 
Q 1128 -78 684 439 
Q 241 956 241 2144 
Q 241 3472 731 4075 
Q 1159 4600 1884 4600 
Q 2425 4600 2770 4297 
Q 3116 3994 3184 3459 
z
M 888 1484 
Q 888 1194 1011 928 
Q 1134 663 1356 523 
Q 1578 384 1822 384 
Q 2178 384 2434 671 
Q 2691 959 2691 1453 
Q 2691 1928 2437 2201 
Q 2184 2475 1800 2475 
Q 1419 2475 1153 2201 
Q 888 1928 888 1484 
z
" transform="scale(0.015625)"/>
       </defs>
       <use xlink:href="#ArialMT-62"/>
       <use xlink:href="#ArialMT-75" transform="translate(55.615234 0)"/>
       <use xlink:href="#ArialMT-72" transform="translate(111.230469 0)"/>
       <use xlink:href="#ArialMT-32" transform="translate(144.53125 0)"/>
       <use xlink:href="#ArialMT-36" transform="translate(200.146484 0)"/>
       <use xlink:href="#ArialMT-62" transform="translate(255.761719 0)"/>
      </g>
     </g>
    </g>
    <g id="xtick_5">
     <g id="line2d_5">
      <path d="M 442.8 384.48 
L 442.8 51.84 
" clip-path="url(#peed03e881f)" style="fill: none; stroke: #cccccc; stroke-linecap: round"/>
     </g>
     <g id="text_5">
      <!-- bur26a -->
      <g style="fill: #262626" transform="translate(432.702349 423.764332) rotate(-45) scale(0.11 -0.11)">
       <use xlink:href="#ArialMT-62"/>
       <use xlink:href="#ArialMT-75" transform="translate(55.615234 0)"/>
       <use xlink:href="#ArialMT-72" transform="translate(111.230469 0)"/>
       <use xlink:href="#ArialMT-32" transform="translate(144.53125 0)"/>
       <use xlink:href="#ArialMT-36" transform="translate(200.146484 0)"/>
       <use xlink:href="#ArialMT-61" transform="translate(255.761719 0)"/>
      </g>
     </g>
    </g>
    <g id="xtick_6">
     <g id="line2d_6">
      <path d="M 518.890909 384.48 
L 518.890909 51.84 
" clip-path="url(#peed03e881f)" style="fill: none; stroke: #cccccc; stroke-linecap: round"/>
     </g>
     <g id="text_6">
      <!-- kra30a -->
      <g style="fill: #262626" transform="translate(509.011412 423.328025) rotate(-45) scale(0.11 -0.11)">
       <defs>
        <path id="ArialMT-6b" d="M 425 0 
L 425 4581 
L 988 4581 
L 988 1969 
L 2319 3319 
L 3047 3319 
L 1778 2088 
L 3175 0 
L 2481 0 
L 1384 1697 
L 988 1316 
L 988 0 
L 425 0 
z
" transform="scale(0.015625)"/>
        <path id="ArialMT-33" d="M 269 1209 
L 831 1284 
Q 928 806 1161 595 
Q 1394 384 1728 384 
Q 2125 384 2398 659 
Q 2672 934 2672 1341 
Q 2672 1728 2419 1979 
Q 2166 2231 1775 2231 
Q 1616 2231 1378 2169 
L 1441 2663 
Q 1497 2656 1531 2656 
Q 1891 2656 2178 2843 
Q 2466 3031 2466 3422 
Q 2466 3731 2256 3934 
Q 2047 4138 1716 4138 
Q 1388 4138 1169 3931 
Q 950 3725 888 3313 
L 325 3413 
Q 428 3978 793 4289 
Q 1159 4600 1703 4600 
Q 2078 4600 2393 4439 
Q 2709 4278 2876 4000 
Q 3044 3722 3044 3409 
Q 3044 3113 2884 2869 
Q 2725 2625 2413 2481 
Q 2819 2388 3044 2092 
Q 3269 1797 3269 1353 
Q 3269 753 2831 336 
Q 2394 -81 1725 -81 
Q 1122 -81 723 278 
Q 325 638 269 1209 
z
" transform="scale(0.015625)"/>
       </defs>
       <use xlink:href="#ArialMT-6b"/>
       <use xlink:href="#ArialMT-72" transform="translate(50 0)"/>
       <use xlink:href="#ArialMT-61" transform="translate(83.300781 0)"/>
       <use xlink:href="#ArialMT-33" transform="translate(138.916016 0)"/>
       <use xlink:href="#ArialMT-30" transform="translate(194.53125 0)"/>
       <use xlink:href="#ArialMT-61" transform="translate(250.146484 0)"/>
      </g>
     </g>
    </g>
    <g id="xtick_7">
     <g id="line2d_7">
      <path d="M 594.981818 384.48 
L 594.981818 51.84 
" clip-path="url(#peed03e881f)" style="fill: none; stroke: #cccccc; stroke-linecap: round"/>
     </g>
     <g id="text_7">
      <!-- tai60a -->
      <g style="fill: #262626" transform="translate(586.397266 420.738136) rotate(-45) scale(0.11 -0.11)">
       <defs>
        <path id="ArialMT-74" d="M 1650 503 
L 1731 6 
Q 1494 -44 1306 -44 
Q 1000 -44 831 53 
Q 663 150 594 308 
Q 525 466 525 972 
L 525 2881 
L 113 2881 
L 113 3319 
L 525 3319 
L 525 4141 
L 1084 4478 
L 1084 3319 
L 1650 3319 
L 1650 2881 
L 1084 2881 
L 1084 941 
Q 1084 700 1114 631 
Q 1144 563 1211 522 
Q 1278 481 1403 481 
Q 1497 481 1650 503 
z
" transform="scale(0.015625)"/>
        <path id="ArialMT-69" d="M 425 3934 
L 425 4581 
L 988 4581 
L 988 3934 
L 425 3934 
z
M 425 0 
L 425 3319 
L 988 3319 
L 988 0 
L 425 0 
z
" transform="scale(0.015625)"/>
       </defs>
       <use xlink:href="#ArialMT-74"/>
       <use xlink:href="#ArialMT-61" transform="translate(27.783203 0)"/>
       <use xlink:href="#ArialMT-69" transform="translate(83.398438 0)"/>
       <use xlink:href="#ArialMT-36" transform="translate(105.615234 0)"/>
       <use xlink:href="#ArialMT-30" transform="translate(161.230469 0)"/>
       <use xlink:href="#ArialMT-61" transform="translate(216.845703 0)"/>
      </g>
     </g>
    </g>
    <g id="xtick_8">
     <g id="line2d_8">
      <path d="M 671.072727 384.48 
L 671.072727 51.84 
" clip-path="url(#peed03e881f)" style="fill: none; stroke: #cccccc; stroke-linecap: round"/>
     </g>
     <g id="text_8">
      <!-- lipa80a -->
      <g style="fill: #262626" transform="translate(660.553354 424.653961) rotate(-45) scale(0.11 -0.11)">
       <defs>
        <path id="ArialMT-6c" d="M 409 0 
L 409 4581 
L 972 4581 
L 972 0 
L 409 0 
z
" transform="scale(0.015625)"/>
        <path id="ArialMT-70" d="M 422 -1272 
L 422 3319 
L 934 3319 
L 934 2888 
Q 1116 3141 1344 3267 
Q 1572 3394 1897 3394 
Q 2322 3394 2647 3175 
Q 2972 2956 3137 2557 
Q 3303 2159 3303 1684 
Q 3303 1175 3120 767 
Q 2938 359 2589 142 
Q 2241 -75 1856 -75 
Q 1575 -75 1351 44 
Q 1128 163 984 344 
L 984 -1272 
L 422 -1272 
z
M 931 1641 
Q 931 1000 1190 694 
Q 1450 388 1819 388 
Q 2194 388 2461 705 
Q 2728 1022 2728 1688 
Q 2728 2322 2467 2637 
Q 2206 2953 1844 2953 
Q 1484 2953 1207 2617 
Q 931 2281 931 1641 
z
" transform="scale(0.015625)"/>
        <path id="ArialMT-38" d="M 1131 2484 
Q 781 2613 612 2850 
Q 444 3088 444 3419 
Q 444 3919 803 4259 
Q 1163 4600 1759 4600 
Q 2359 4600 2725 4251 
Q 3091 3903 3091 3403 
Q 3091 3084 2923 2848 
Q 2756 2613 2416 2484 
Q 2838 2347 3058 2040 
Q 3278 1734 3278 1309 
Q 3278 722 2862 322 
Q 2447 -78 1769 -78 
Q 1091 -78 675 323 
Q 259 725 259 1325 
Q 259 1772 486 2073 
Q 713 2375 1131 2484 
z
M 1019 3438 
Q 1019 3113 1228 2906 
Q 1438 2700 1772 2700 
Q 2097 2700 2305 2904 
Q 2513 3109 2513 3406 
Q 2513 3716 2298 3927 
Q 2084 4138 1766 4138 
Q 1444 4138 1231 3931 
Q 1019 3725 1019 3438 
z
M 838 1322 
Q 838 1081 952 856 
Q 1066 631 1291 507 
Q 1516 384 1775 384 
Q 2178 384 2440 643 
Q 2703 903 2703 1303 
Q 2703 1709 2433 1975 
Q 2163 2241 1756 2241 
Q 1359 2241 1098 1978 
Q 838 1716 838 1322 
z
" transform="scale(0.015625)"/>
       </defs>
       <use xlink:href="#ArialMT-6c"/>
       <use xlink:href="#ArialMT-69" transform="translate(22.216797 0)"/>
       <use xlink:href="#ArialMT-70" transform="translate(44.433594 0)"/>
       <use xlink:href="#ArialMT-61" transform="translate(100.048828 0)"/>
       <use xlink:href="#ArialMT-38" transform="translate(155.664062 0)"/>
       <use xlink:href="#ArialMT-30" transform="translate(211.279297 0)"/>
       <use xlink:href="#ArialMT-61" transform="translate(266.894531 0)"/>
      </g>
     </g>
    </g>
    <g id="xtick_9">
     <g id="line2d_9">
      <path d="M 747.163636 384.48 
L 747.163636 51.84 
" clip-path="url(#peed03e881f)" style="fill: none; stroke: #cccccc; stroke-linecap: round"/>
     </g>
     <g id="text_9">
      <!-- wil100 -->
      <g style="fill: #262626" transform="translate(738.149461 421.597381) rotate(-45) scale(0.11 -0.11)">
       <defs>
        <path id="ArialMT-77" d="M 1034 0 
L 19 3319 
L 600 3319 
L 1128 1403 
L 1325 691 
Q 1338 744 1497 1375 
L 2025 3319 
L 2603 3319 
L 3100 1394 
L 3266 759 
L 3456 1400 
L 4025 3319 
L 4572 3319 
L 3534 0 
L 2950 0 
L 2422 1988 
L 2294 2553 
L 1622 0 
L 1034 0 
z
" transform="scale(0.015625)"/>
       </defs>
       <use xlink:href="#ArialMT-77"/>
       <use xlink:href="#ArialMT-69" transform="translate(72.216797 0)"/>
       <use xlink:href="#ArialMT-6c" transform="translate(94.433594 0)"/>
       <use xlink:href="#ArialMT-31" transform="translate(116.650391 0)"/>
       <use xlink:href="#ArialMT-30" transform="translate(172.265625 0)"/>
       <use xlink:href="#ArialMT-30" transform="translate(227.880859 0)"/>
      </g>
     </g>
    </g>
    <g id="text_10">
     <!-- Instance -->
     <g style="fill: #262626" transform="translate(420.12 438.789248) scale(0.12 -0.12)">
      <defs>
       <path id="ArialMT-49" d="M 597 0 
L 597 4581 
L 1203 4581 
L 1203 0 
L 597 0 
z
" transform="scale(0.015625)"/>
       <path id="ArialMT-6e" d="M 422 0 
L 422 3319 
L 928 3319 
L 928 2847 
Q 1294 3394 1984 3394 
Q 2284 3394 2536 3286 
Q 2788 3178 2913 3003 
Q 3038 2828 3088 2588 
Q 3119 2431 3119 2041 
L 3119 0 
L 2556 0 
L 2556 2019 
Q 2556 2363 2490 2533 
Q 2425 2703 2258 2804 
Q 2091 2906 1866 2906 
Q 1506 2906 1245 2678 
Q 984 2450 984 1813 
L 984 0 
L 422 0 
z
" transform="scale(0.015625)"/>
       <path id="ArialMT-73" d="M 197 991 
L 753 1078 
Q 800 744 1014 566 
Q 1228 388 1613 388 
Q 2000 388 2187 545 
Q 2375 703 2375 916 
Q 2375 1106 2209 1216 
Q 2094 1291 1634 1406 
Q 1016 1563 777 1677 
Q 538 1791 414 1992 
Q 291 2194 291 2438 
Q 291 2659 392 2848 
Q 494 3038 669 3163 
Q 800 3259 1026 3326 
Q 1253 3394 1513 3394 
Q 1903 3394 2198 3281 
Q 2494 3169 2634 2976 
Q 2775 2784 2828 2463 
L 2278 2388 
Q 2241 2644 2061 2787 
Q 1881 2931 1553 2931 
Q 1166 2931 1000 2803 
Q 834 2675 834 2503 
Q 834 2394 903 2306 
Q 972 2216 1119 2156 
Q 1203 2125 1616 2013 
Q 2213 1853 2448 1751 
Q 2684 1650 2818 1456 
Q 2953 1263 2953 975 
Q 2953 694 2789 445 
Q 2625 197 2315 61 
Q 2006 -75 1616 -75 
Q 969 -75 630 194 
Q 291 463 197 991 
z
" transform="scale(0.015625)"/>
       <path id="ArialMT-65" d="M 2694 1069 
L 3275 997 
Q 3138 488 2766 206 
Q 2394 -75 1816 -75 
Q 1088 -75 661 373 
Q 234 822 234 1631 
Q 234 2469 665 2931 
Q 1097 3394 1784 3394 
Q 2450 3394 2872 2941 
Q 3294 2488 3294 1666 
Q 3294 1616 3291 1516 
L 816 1516 
Q 847 969 1125 678 
Q 1403 388 1819 388 
Q 2128 388 2347 550 
Q 2566 713 2694 1069 
z
M 847 1978 
L 2700 1978 
Q 2663 2397 2488 2606 
Q 2219 2931 1791 2931 
Q 1403 2931 1139 2672 
Q 875 2413 847 1978 
z
" transform="scale(0.015625)"/>
      </defs>
      <use xlink:href="#ArialMT-49"/>
      <use xlink:href="#ArialMT-6e" transform="translate(27.783203 0)"/>
      <use xlink:href="#ArialMT-73" transform="translate(83.398438 0)"/>
      <use xlink:href="#ArialMT-74" transform="translate(133.398438 0)"/>
      <use xlink:href="#ArialMT-61" transform="translate(161.181641 0)"/>
      <use xlink:href="#ArialMT-6e" transform="translate(216.796875 0)"/>
      <use xlink:href="#ArialMT-63" transform="translate(272.412109 0)"/>
      <use xlink:href="#ArialMT-65" transform="translate(322.412109 0)"/>
     </g>
    </g>
   </g>
   <g id="matplotlib.axis_2">
    <g id="ytick_1">
     <g id="line2d_10">
      <path d="M 108 316.844902 
L 777.6 316.844902 
" clip-path="url(#peed03e881f)" style="fill: none; stroke: #cccccc; stroke-linecap: round"/>
     </g>
     <g id="text_11">
      <!-- $\mathdefault{10^{-1}}$ -->
      <g style="fill: #262626" transform="translate(76.72 322.516777) scale(0.11 -0.11)">
       <defs>
        <path id="ArialMT-2212" d="M 3381 1997 
L 356 1997 
L 356 2522 
L 3381 2522 
L 3381 1997 
z
" transform="scale(0.015625)"/>
       </defs>
       <use xlink:href="#ArialMT-31" transform="translate(0 0.99375)"/>
       <use xlink:href="#ArialMT-30" transform="translate(55.615234 0.99375)"/>
       <use xlink:href="#ArialMT-2212" transform="translate(112.972813 70.6875) scale(0.7)"/>
       <use xlink:href="#ArialMT-31" transform="translate(153.851719 70.6875) scale(0.7)"/>
      </g>
     </g>
    </g>
    <g id="ytick_2">
     <g id="line2d_11">
      <path d="M 108 225.679174 
L 777.6 225.679174 
" clip-path="url(#peed03e881f)" style="fill: none; stroke: #cccccc; stroke-linecap: round"/>
     </g>
     <g id="text_12">
      <!-- $\mathdefault{10^{0}}$ -->
      <g style="fill: #262626" transform="translate(81.23 231.351049) scale(0.11 -0.11)">
       <use xlink:href="#ArialMT-31" transform="translate(0 0.99375)"/>
       <use xlink:href="#ArialMT-30" transform="translate(55.615234 0.99375)"/>
       <use xlink:href="#ArialMT-30" transform="translate(112.972813 70.6875) scale(0.7)"/>
      </g>
     </g>
    </g>
    <g id="ytick_3">
     <g id="line2d_12">
      <path d="M 108 134.513445 
L 777.6 134.513445 
" clip-path="url(#peed03e881f)" style="fill: none; stroke: #cccccc; stroke-linecap: round"/>
     </g>
     <g id="text_13">
      <!-- $\mathdefault{10^{1}}$ -->
      <g style="fill: #262626" transform="translate(81.23 140.18532) scale(0.11 -0.11)">
       <use xlink:href="#ArialMT-31" transform="translate(0 0.99375)"/>
       <use xlink:href="#ArialMT-30" transform="translate(55.615234 0.99375)"/>
       <use xlink:href="#ArialMT-31" transform="translate(112.972813 70.6875) scale(0.7)"/>
      </g>
     </g>
    </g>
    <g id="ytick_4"/>
    <g id="ytick_5"/>
    <g id="ytick_6"/>
    <g id="ytick_7"/>
    <g id="ytick_8"/>
    <g id="ytick_9"/>
    <g id="ytick_10"/>
    <g id="ytick_11"/>
    <g id="ytick_12"/>
    <g id="ytick_13"/>
    <g id="ytick_14"/>
    <g id="ytick_15"/>
    <g id="ytick_16"/>
    <g id="ytick_17"/>
    <g id="ytick_18"/>
    <g id="ytick_19"/>
    <g id="ytick_20"/>
    <g id="ytick_21"/>
    <g id="ytick_22"/>
    <g id="ytick_23"/>
    <g id="ytick_24"/>
    <g id="ytick_25"/>
    <g id="ytick_26"/>
    <g id="ytick_27"/>
    <g id="ytick_28"/>
    <g id="ytick_29"/>
    <g id="ytick_30"/>
    <g id="ytick_31"/>
    <g id="ytick_32"/>
    <g id="ytick_33"/>
    <g id="ytick_34"/>
    <g id="text_14">
     <!-- Quality Standard Deviation -->
     <g style="fill: #262626" transform="translate(70.194375 289.529062) rotate(-90) scale(0.12 -0.12)">
      <defs>
       <path id="ArialMT-51" d="M 3966 491 
Q 4388 200 4744 66 
L 4566 -356 
Q 4072 -178 3581 206 
Q 3072 -78 2456 -78 
Q 1834 -78 1328 222 
Q 822 522 548 1065 
Q 275 1609 275 2291 
Q 275 2969 550 3525 
Q 825 4081 1333 4372 
Q 1841 4663 2469 4663 
Q 3103 4663 3612 4361 
Q 4122 4059 4389 3517 
Q 4656 2975 4656 2294 
Q 4656 1728 4484 1276 
Q 4313 825 3966 491 
z
M 2631 1266 
Q 3156 1119 3497 828 
Q 4031 1316 4031 2294 
Q 4031 2850 3842 3265 
Q 3653 3681 3289 3911 
Q 2925 4141 2472 4141 
Q 1794 4141 1347 3677 
Q 900 3213 900 2291 
Q 900 1397 1342 919 
Q 1784 441 2472 441 
Q 2797 441 3084 563 
Q 2800 747 2484 825 
L 2631 1266 
z
" transform="scale(0.015625)"/>
       <path id="ArialMT-79" d="M 397 -1278 
L 334 -750 
Q 519 -800 656 -800 
Q 844 -800 956 -737 
Q 1069 -675 1141 -563 
Q 1194 -478 1313 -144 
Q 1328 -97 1363 -6 
L 103 3319 
L 709 3319 
L 1400 1397 
Q 1534 1031 1641 628 
Q 1738 1016 1872 1384 
L 2581 3319 
L 3144 3319 
L 1881 -56 
Q 1678 -603 1566 -809 
Q 1416 -1088 1222 -1217 
Q 1028 -1347 759 -1347 
Q 597 -1347 397 -1278 
z
" transform="scale(0.015625)"/>
       <path id="ArialMT-20" transform="scale(0.015625)"/>
       <path id="ArialMT-53" d="M 288 1472 
L 859 1522 
Q 900 1178 1048 958 
Q 1197 738 1509 602 
Q 1822 466 2213 466 
Q 2559 466 2825 569 
Q 3091 672 3220 851 
Q 3350 1031 3350 1244 
Q 3350 1459 3225 1620 
Q 3100 1781 2813 1891 
Q 2628 1963 1997 2114 
Q 1366 2266 1113 2400 
Q 784 2572 623 2826 
Q 463 3081 463 3397 
Q 463 3744 659 4045 
Q 856 4347 1234 4503 
Q 1613 4659 2075 4659 
Q 2584 4659 2973 4495 
Q 3363 4331 3572 4012 
Q 3781 3694 3797 3291 
L 3216 3247 
Q 3169 3681 2898 3903 
Q 2628 4125 2100 4125 
Q 1550 4125 1298 3923 
Q 1047 3722 1047 3438 
Q 1047 3191 1225 3031 
Q 1400 2872 2139 2705 
Q 2878 2538 3153 2413 
Q 3553 2228 3743 1945 
Q 3934 1663 3934 1294 
Q 3934 928 3725 604 
Q 3516 281 3123 101 
Q 2731 -78 2241 -78 
Q 1619 -78 1198 103 
Q 778 284 539 648 
Q 300 1013 288 1472 
z
" transform="scale(0.015625)"/>
       <path id="ArialMT-44" d="M 494 0 
L 494 4581 
L 2072 4581 
Q 2606 4581 2888 4516 
Q 3281 4425 3559 4188 
Q 3922 3881 4101 3404 
Q 4281 2928 4281 2316 
Q 4281 1794 4159 1391 
Q 4038 988 3847 723 
Q 3656 459 3429 307 
Q 3203 156 2883 78 
Q 2563 0 2147 0 
L 494 0 
z
M 1100 541 
L 2078 541 
Q 2531 541 2789 625 
Q 3047 709 3200 863 
Q 3416 1078 3536 1442 
Q 3656 1806 3656 2325 
Q 3656 3044 3420 3430 
Q 3184 3816 2847 3947 
Q 2603 4041 2063 4041 
L 1100 4041 
L 1100 541 
z
" transform="scale(0.015625)"/>
       <path id="ArialMT-76" d="M 1344 0 
L 81 3319 
L 675 3319 
L 1388 1331 
Q 1503 1009 1600 663 
Q 1675 925 1809 1294 
L 2547 3319 
L 3125 3319 
L 1869 0 
L 1344 0 
z
" transform="scale(0.015625)"/>
       <path id="ArialMT-6f" d="M 213 1659 
Q 213 2581 725 3025 
Q 1153 3394 1769 3394 
Q 2453 3394 2887 2945 
Q 3322 2497 3322 1706 
Q 3322 1066 3130 698 
Q 2938 331 2570 128 
Q 2203 -75 1769 -75 
Q 1072 -75 642 372 
Q 213 819 213 1659 
z
M 791 1659 
Q 791 1022 1069 705 
Q 1347 388 1769 388 
Q 2188 388 2466 706 
Q 2744 1025 2744 1678 
Q 2744 2294 2464 2611 
Q 2184 2928 1769 2928 
Q 1347 2928 1069 2612 
Q 791 2297 791 1659 
z
" transform="scale(0.015625)"/>
      </defs>
      <use xlink:href="#ArialMT-51"/>
      <use xlink:href="#ArialMT-75" transform="translate(77.783203 0)"/>
      <use xlink:href="#ArialMT-61" transform="translate(133.398438 0)"/>
      <use xlink:href="#ArialMT-6c" transform="translate(189.013672 0)"/>
      <use xlink:href="#ArialMT-69" transform="translate(211.230469 0)"/>
      <use xlink:href="#ArialMT-74" transform="translate(233.447266 0)"/>
      <use xlink:href="#ArialMT-79" transform="translate(261.230469 0)"/>
      <use xlink:href="#ArialMT-20" transform="translate(311.230469 0)"/>
      <use xlink:href="#ArialMT-53" transform="translate(339.013672 0)"/>
      <use xlink:href="#ArialMT-74" transform="translate(405.712891 0)"/>
      <use xlink:href="#ArialMT-61" transform="translate(433.496094 0)"/>
      <use xlink:href="#ArialMT-6e" transform="translate(489.111328 0)"/>
      <use xlink:href="#ArialMT-64" transform="translate(544.726562 0)"/>
      <use xlink:href="#ArialMT-61" transform="translate(600.341797 0)"/>
      <use xlink:href="#ArialMT-72" transform="translate(655.957031 0)"/>
      <use xlink:href="#ArialMT-64" transform="translate(689.257812 0)"/>
      <use xlink:href="#ArialMT-20" transform="translate(744.873047 0)"/>
      <use xlink:href="#ArialMT-44" transform="translate(772.65625 0)"/>
      <use xlink:href="#ArialMT-65" transform="translate(844.873047 0)"/>
      <use xlink:href="#ArialMT-76" transform="translate(900.488281 0)"/>
      <use xlink:href="#ArialMT-69" transform="translate(950.488281 0)"/>
      <use xlink:href="#ArialMT-61" transform="translate(972.705078 0)"/>
      <use xlink:href="#ArialMT-74" transform="translate(1028.320312 0)"/>
      <use xlink:href="#ArialMT-69" transform="translate(1056.103516 0)"/>
      <use xlink:href="#ArialMT-6f" transform="translate(1078.320312 0)"/>
      <use xlink:href="#ArialMT-6e" transform="translate(1133.935547 0)"/>
     </g>
    </g>
   </g>
   <g id="line2d_13">
    <path d="M 138.436364 189.951293 
L 214.527273 66.96 
L 290.618182 139.900977 
L 366.709091 206.794724 
L 442.8 214.022916 
L 518.890909 167.446157 
L 594.981818 236.211619 
L 671.072727 335.367654 
L 747.163636 262.021634 
" clip-path="url(#peed03e881f)" style="fill: none; stroke: #999999; stroke-width: 1.5; stroke-linecap: round"/>
    <defs>
     <path id="m045a8ec9cf" d="M 0 3 
C 0.795609 3 1.55874 2.683901 2.12132 2.12132 
C 2.683901 1.55874 3 0.795609 3 0 
C 3 -0.795609 2.683901 -1.55874 2.12132 -2.12132 
C 1.55874 -2.683901 0.795609 -3 0 -3 
C -0.795609 -3 -1.55874 -2.683901 -2.12132 -2.12132 
C -2.683901 -1.55874 -3 -0.795609 -3 0 
C -3 0.795609 -2.683901 1.55874 -2.12132 2.12132 
C -1.55874 2.683901 -0.795609 3 0 3 
z
" style="stroke: #999999"/>
    </defs>
    <g clip-path="url(#peed03e881f)">
     <use xlink:href="#m045a8ec9cf" x="138.436364" y="189.951293" style="fill: #999999; stroke: #999999"/>
     <use xlink:href="#m045a8ec9cf" x="214.527273" y="66.96" style="fill: #999999; stroke: #999999"/>
     <use xlink:href="#m045a8ec9cf" x="290.618182" y="139.900977" style="fill: #999999; stroke: #999999"/>
     <use xlink:href="#m045a8ec9cf" x="366.709091" y="206.794724" style="fill: #999999; stroke: #999999"/>
     <use xlink:href="#m045a8ec9cf" x="442.8" y="214.022916" style="fill: #999999; stroke: #999999"/>
     <use xlink:href="#m045a8ec9cf" x="518.890909" y="167.446157" style="fill: #999999; stroke: #999999"/>
     <use xlink:href="#m045a8ec9cf" x="594.981818" y="236.211619" style="fill: #999999; stroke: #999999"/>
     <use xlink:href="#m045a8ec9cf" x="671.072727" y="335.367654" style="fill: #999999; stroke: #999999"/>
     <use xlink:href="#m045a8ec9cf" x="747.163636" y="262.021634" style="fill: #999999; stroke: #999999"/>
    </g>
   </g>
   <g id="line2d_14">
    <path clip-path="url(#peed03e881f)" style="fill: none; stroke: #a65628; stroke-width: 1.5; stroke-linecap: round"/>
    <defs>
     <path id="m6e79278371" d="M 0 3 
C 0.795609 3 1.55874 2.683901 2.12132 2.12132 
C 2.683901 1.55874 3 0.795609 3 0 
C 3 -0.795609 2.683901 -1.55874 2.12132 -2.12132 
C 1.55874 -2.683901 0.795609 -3 0 -3 
C -0.795609 -3 -1.55874 -2.683901 -2.12132 -2.12132 
C -2.683901 -1.55874 -3 -0.795609 -3 0 
C -3 0.795609 -2.683901 1.55874 -2.12132 2.12132 
C -1.55874 2.683901 -0.795609 3 0 3 
z
" style="stroke: #a65628"/>
    </defs>
    <g clip-path="url(#peed03e881f)"/>
   </g>
   <g id="line2d_15">
    <path d="M 138.436364 223.654371 
L 214.527273 85.201166 
L 290.618182 170.934758 
L 366.709091 290.143069 
L 442.8 296.772099 
L 518.890909 194.782415 
L 594.981818 247.96955 
L 671.072727 349.359594 
L 747.163636 285.522204 
" clip-path="url(#peed03e881f)" style="fill: none; stroke: #377eb8; stroke-width: 1.5; stroke-linecap: round"/>
    <defs>
     <path id="mbc08f38257" d="M 0 3 
C 0.795609 3 1.55874 2.683901 2.12132 2.12132 
C 2.683901 1.55874 3 0.795609 3 0 
C 3 -0.795609 2.683901 -1.55874 2.12132 -2.12132 
C 1.55874 -2.683901 0.795609 -3 0 -3 
C -0.795609 -3 -1.55874 -2.683901 -2.12132 -2.12132 
C -2.683901 -1.55874 -3 -0.795609 -3 0 
C -3 0.795609 -2.683901 1.55874 -2.12132 2.12132 
C -1.55874 2.683901 -0.795609 3 0 3 
z
" style="stroke: #377eb8"/>
    </defs>
    <g clip-path="url(#peed03e881f)">
     <use xlink:href="#mbc08f38257" x="138.436364" y="223.654371" style="fill: #377eb8; stroke: #377eb8"/>
     <use xlink:href="#mbc08f38257" x="214.527273" y="85.201166" style="fill: #377eb8; stroke: #377eb8"/>
     <use xlink:href="#mbc08f38257" x="290.618182" y="170.934758" style="fill: #377eb8; stroke: #377eb8"/>
     <use xlink:href="#mbc08f38257" x="366.709091" y="290.143069" style="fill: #377eb8; stroke: #377eb8"/>
     <use xlink:href="#mbc08f38257" x="442.8" y="296.772099" style="fill: #377eb8; stroke: #377eb8"/>
     <use xlink:href="#mbc08f38257" x="518.890909" y="194.782415" style="fill: #377eb8; stroke: #377eb8"/>
     <use xlink:href="#mbc08f38257" x="594.981818" y="247.96955" style="fill: #377eb8; stroke: #377eb8"/>
     <use xlink:href="#mbc08f38257" x="671.072727" y="349.359594" style="fill: #377eb8; stroke: #377eb8"/>
     <use xlink:href="#mbc08f38257" x="747.163636" y="285.522204" style="fill: #377eb8; stroke: #377eb8"/>
    </g>
   </g>
   <g id="line2d_16">
    <path d="M 138.436364 219.821935 
L 214.527273 81.543818 
L 290.618182 149.6299 
L 366.709091 262.315517 
L 442.8 258.987048 
L 518.890909 202.959398 
L 594.981818 268.229672 
L 671.072727 369.36 
L 747.163636 302.905497 
" clip-path="url(#peed03e881f)" style="fill: none; stroke: #984ea3; stroke-width: 1.5; stroke-linecap: round"/>
    <defs>
     <path id="m62e16de499" d="M 0 3 
C 0.795609 3 1.55874 2.683901 2.12132 2.12132 
C 2.683901 1.55874 3 0.795609 3 0 
C 3 -0.795609 2.683901 -1.55874 2.12132 -2.12132 
C 1.55874 -2.683901 0.795609 -3 0 -3 
C -0.795609 -3 -1.55874 -2.683901 -2.12132 -2.12132 
C -2.683901 -1.55874 -3 -0.795609 -3 0 
C -3 0.795609 -2.683901 1.55874 -2.12132 2.12132 
C -1.55874 2.683901 -0.795609 3 0 3 
z
" style="stroke: #984ea3"/>
    </defs>
    <g clip-path="url(#peed03e881f)">
     <use xlink:href="#m62e16de499" x="138.436364" y="219.821935" style="fill: #984ea3; stroke: #984ea3"/>
     <use xlink:href="#m62e16de499" x="214.527273" y="81.543818" style="fill: #984ea3; stroke: #984ea3"/>
     <use xlink:href="#m62e16de499" x="290.618182" y="149.6299" style="fill: #984ea3; stroke: #984ea3"/>
     <use xlink:href="#m62e16de499" x="366.709091" y="262.315517" style="fill: #984ea3; stroke: #984ea3"/>
     <use xlink:href="#m62e16de499" x="442.8" y="258.987048" style="fill: #984ea3; stroke: #984ea3"/>
     <use xlink:href="#m62e16de499" x="518.890909" y="202.959398" style="fill: #984ea3; stroke: #984ea3"/>
     <use xlink:href="#m62e16de499" x="594.981818" y="268.229672" style="fill: #984ea3; stroke: #984ea3"/>
     <use xlink:href="#m62e16de499" x="671.072727" y="369.36" style="fill: #984ea3; stroke: #984ea3"/>
     <use xlink:href="#m62e16de499" x="747.163636" y="302.905497" style="fill: #984ea3; stroke: #984ea3"/>
    </g>
   </g>
   <g id="line2d_17">
    <path d="M 214.266163 433 
L 214.527273 119.796772 
L 214.788383 433 
M 366.515677 433 
L 366.709091 201.205697 
L 442.8 214.263326 
L 518.890909 178.685268 
L 519.103062 433 
M 670.990167 433 
L 671.072727 334.200389 
L 747.163636 286.507073 
" clip-path="url(#peed03e881f)" style="fill: none; stroke: #4daf4a; stroke-width: 1.5; stroke-linecap: round"/>
    <defs>
     <path id="mf9004c6f81" d="M 0 3 
C 0.795609 3 1.55874 2.683901 2.12132 2.12132 
C 2.683901 1.55874 3 0.795609 3 0 
C 3 -0.795609 2.683901 -1.55874 2.12132 -2.12132 
C 1.55874 -2.683901 0.795609 -3 0 -3 
C -0.795609 -3 -1.55874 -2.683901 -2.12132 -2.12132 
C -2.683901 -1.55874 -3 -0.795609 -3 0 
C -3 0.795609 -2.683901 1.55874 -2.12132 2.12132 
C -1.55874 2.683901 -0.795609 3 0 3 
z
" style="stroke: #4daf4a"/>
    </defs>
    <g clip-path="url(#peed03e881f)">
     <use xlink:href="#mf9004c6f81" x="188.695667" y="31105" style="fill: #4daf4a; stroke: #4daf4a"/>
     <use xlink:href="#mf9004c6f81" x="214.527273" y="119.796772" style="fill: #4daf4a; stroke: #4daf4a"/>
     <use xlink:href="#mf9004c6f81" x="240.358879" y="31105" style="fill: #4daf4a; stroke: #4daf4a"/>
     <use xlink:href="#mf9004c6f81" x="340.922353" y="31105" style="fill: #4daf4a; stroke: #4daf4a"/>
     <use xlink:href="#mf9004c6f81" x="366.709091" y="201.205697" style="fill: #4daf4a; stroke: #4daf4a"/>
     <use xlink:href="#mf9004c6f81" x="442.8" y="214.263326" style="fill: #4daf4a; stroke: #4daf4a"/>
     <use xlink:href="#mf9004c6f81" x="518.890909" y="178.685268" style="fill: #4daf4a; stroke: #4daf4a"/>
     <use xlink:href="#mf9004c6f81" x="544.690067" y="31105" style="fill: #4daf4a; stroke: #4daf4a"/>
     <use xlink:href="#mf9004c6f81" x="645.359462" y="31105" style="fill: #4daf4a; stroke: #4daf4a"/>
     <use xlink:href="#mf9004c6f81" x="671.072727" y="334.200389" style="fill: #4daf4a; stroke: #4daf4a"/>
     <use xlink:href="#mf9004c6f81" x="747.163636" y="286.507073" style="fill: #4daf4a; stroke: #4daf4a"/>
    </g>
   </g>
   <g id="line2d_18">
    <path d="M 138.436364 230.44337 
L 214.527273 89.275933 
L 290.618182 177.214867 
L 366.709091 289.526192 
L 442.8 295.705645 
L 518.890909 201.326174 
L 594.981818 248.638022 
L 671.072727 349.544183 
L 747.163636 289.476183 
" clip-path="url(#peed03e881f)" style="fill: none; stroke: #e41a1c; stroke-width: 1.5; stroke-linecap: round"/>
    <defs>
     <path id="m19132d7981" d="M 0 3 
C 0.795609 3 1.55874 2.683901 2.12132 2.12132 
C 2.683901 1.55874 3 0.795609 3 0 
C 3 -0.795609 2.683901 -1.55874 2.12132 -2.12132 
C 1.55874 -2.683901 0.795609 -3 0 -3 
C -0.795609 -3 -1.55874 -2.683901 -2.12132 -2.12132 
C -2.683901 -1.55874 -3 -0.795609 -3 0 
C -3 0.795609 -2.683901 1.55874 -2.12132 2.12132 
C -1.55874 2.683901 -0.795609 3 0 3 
z
" style="stroke: #e41a1c"/>
    </defs>
    <g clip-path="url(#peed03e881f)">
     <use xlink:href="#m19132d7981" x="138.436364" y="230.44337" style="fill: #e41a1c; stroke: #e41a1c"/>
     <use xlink:href="#m19132d7981" x="214.527273" y="89.275933" style="fill: #e41a1c; stroke: #e41a1c"/>
     <use xlink:href="#m19132d7981" x="290.618182" y="177.214867" style="fill: #e41a1c; stroke: #e41a1c"/>
     <use xlink:href="#m19132d7981" x="366.709091" y="289.526192" style="fill: #e41a1c; stroke: #e41a1c"/>
     <use xlink:href="#m19132d7981" x="442.8" y="295.705645" style="fill: #e41a1c; stroke: #e41a1c"/>
     <use xlink:href="#m19132d7981" x="518.890909" y="201.326174" style="fill: #e41a1c; stroke: #e41a1c"/>
     <use xlink:href="#m19132d7981" x="594.981818" y="248.638022" style="fill: #e41a1c; stroke: #e41a1c"/>
     <use xlink:href="#m19132d7981" x="671.072727" y="349.544183" style="fill: #e41a1c; stroke: #e41a1c"/>
     <use xlink:href="#m19132d7981" x="747.163636" y="289.476183" style="fill: #e41a1c; stroke: #e41a1c"/>
    </g>
   </g>
   <g id="line2d_19">
    <path d="M 138.436364 216.190328 
L 214.527273 85.924643 
L 290.618182 148.210841 
L 366.709091 256.628847 
L 442.8 263.990598 
L 518.890909 203.004777 
L 594.981818 270.194055 
L 671.072727 368.097509 
L 747.163636 303.659007 
" clip-path="url(#peed03e881f)" style="fill: none; stroke: #fdb462; stroke-width: 1.5; stroke-linecap: round"/>
    <defs>
     <path id="m74d51d1242" d="M 0 3 
C 0.795609 3 1.55874 2.683901 2.12132 2.12132 
C 2.683901 1.55874 3 0.795609 3 0 
C 3 -0.795609 2.683901 -1.55874 2.12132 -2.12132 
C 1.55874 -2.683901 0.795609 -3 0 -3 
C -0.795609 -3 -1.55874 -2.683901 -2.12132 -2.12132 
C -2.683901 -1.55874 -3 -0.795609 -3 0 
C -3 0.795609 -2.683901 1.55874 -2.12132 2.12132 
C -1.55874 2.683901 -0.795609 3 0 3 
z
" style="stroke: #fdb462"/>
    </defs>
    <g clip-path="url(#peed03e881f)">
     <use xlink:href="#m74d51d1242" x="138.436364" y="216.190328" style="fill: #fdb462; stroke: #fdb462"/>
     <use xlink:href="#m74d51d1242" x="214.527273" y="85.924643" style="fill: #fdb462; stroke: #fdb462"/>
     <use xlink:href="#m74d51d1242" x="290.618182" y="148.210841" style="fill: #fdb462; stroke: #fdb462"/>
     <use xlink:href="#m74d51d1242" x="366.709091" y="256.628847" style="fill: #fdb462; stroke: #fdb462"/>
     <use xlink:href="#m74d51d1242" x="442.8" y="263.990598" style="fill: #fdb462; stroke: #fdb462"/>
     <use xlink:href="#m74d51d1242" x="518.890909" y="203.004777" style="fill: #fdb462; stroke: #fdb462"/>
     <use xlink:href="#m74d51d1242" x="594.981818" y="270.194055" style="fill: #fdb462; stroke: #fdb462"/>
     <use xlink:href="#m74d51d1242" x="671.072727" y="368.097509" style="fill: #fdb462; stroke: #fdb462"/>
     <use xlink:href="#m74d51d1242" x="747.163636" y="303.659007" style="fill: #fdb462; stroke: #fdb462"/>
    </g>
   </g>
   <g id="patch_3">
    <path d="M 108 384.48 
L 108 51.84 
" style="fill: none; stroke: #cccccc; stroke-width: 1.25; stroke-linejoin: miter; stroke-linecap: square"/>
   </g>
   <g id="patch_4">
    <path d="M 777.6 384.48 
L 777.6 51.84 
" style="fill: none; stroke: #cccccc; stroke-width: 1.25; stroke-linejoin: miter; stroke-linecap: square"/>
   </g>
   <g id="patch_5">
    <path d="M 108 384.48 
L 777.6 384.48 
" style="fill: none; stroke: #cccccc; stroke-width: 1.25; stroke-linejoin: miter; stroke-linecap: square"/>
   </g>
   <g id="patch_6">
    <path d="M 108 51.84 
L 777.6 51.84 
" style="fill: none; stroke: #cccccc; stroke-width: 1.25; stroke-linejoin: miter; stroke-linecap: square"/>
   </g>
   <g id="text_15">
    <!-- Algorithm Quality Standard Deviation per Instance (Log scale) -->
    <g style="fill: #262626" transform="translate(278.393438 45.84) scale(0.12 -0.12)">
     <defs>
      <path id="ArialMT-41" d="M -9 0 
L 1750 4581 
L 2403 4581 
L 4278 0 
L 3588 0 
L 3053 1388 
L 1138 1388 
L 634 0 
L -9 0 
z
M 1313 1881 
L 2866 1881 
L 2388 3150 
Q 2169 3728 2063 4100 
Q 1975 3659 1816 3225 
L 1313 1881 
z
" transform="scale(0.015625)"/>
      <path id="ArialMT-67" d="M 319 -275 
L 866 -356 
Q 900 -609 1056 -725 
Q 1266 -881 1628 -881 
Q 2019 -881 2231 -725 
Q 2444 -569 2519 -288 
Q 2563 -116 2559 434 
Q 2191 0 1641 0 
Q 956 0 581 494 
Q 206 988 206 1678 
Q 206 2153 378 2554 
Q 550 2956 876 3175 
Q 1203 3394 1644 3394 
Q 2231 3394 2613 2919 
L 2613 3319 
L 3131 3319 
L 3131 450 
Q 3131 -325 2973 -648 
Q 2816 -972 2473 -1159 
Q 2131 -1347 1631 -1347 
Q 1038 -1347 672 -1080 
Q 306 -813 319 -275 
z
M 784 1719 
Q 784 1066 1043 766 
Q 1303 466 1694 466 
Q 2081 466 2343 764 
Q 2606 1063 2606 1700 
Q 2606 2309 2336 2618 
Q 2066 2928 1684 2928 
Q 1309 2928 1046 2623 
Q 784 2319 784 1719 
z
" transform="scale(0.015625)"/>
      <path id="ArialMT-6d" d="M 422 0 
L 422 3319 
L 925 3319 
L 925 2853 
Q 1081 3097 1340 3245 
Q 1600 3394 1931 3394 
Q 2300 3394 2536 3241 
Q 2772 3088 2869 2813 
Q 3263 3394 3894 3394 
Q 4388 3394 4653 3120 
Q 4919 2847 4919 2278 
L 4919 0 
L 4359 0 
L 4359 2091 
Q 4359 2428 4304 2576 
Q 4250 2725 4106 2815 
Q 3963 2906 3769 2906 
Q 3419 2906 3187 2673 
Q 2956 2441 2956 1928 
L 2956 0 
L 2394 0 
L 2394 2156 
Q 2394 2531 2256 2718 
Q 2119 2906 1806 2906 
Q 1569 2906 1367 2781 
Q 1166 2656 1075 2415 
Q 984 2175 984 1722 
L 984 0 
L 422 0 
z
" transform="scale(0.015625)"/>
      <path id="ArialMT-28" d="M 1497 -1347 
Q 1031 -759 709 28 
Q 388 816 388 1659 
Q 388 2403 628 3084 
Q 909 3875 1497 4659 
L 1900 4659 
Q 1522 4009 1400 3731 
Q 1209 3300 1100 2831 
Q 966 2247 966 1656 
Q 966 153 1900 -1347 
L 1497 -1347 
z
" transform="scale(0.015625)"/>
      <path id="ArialMT-4c" d="M 469 0 
L 469 4581 
L 1075 4581 
L 1075 541 
L 3331 541 
L 3331 0 
L 469 0 
z
" transform="scale(0.015625)"/>
      <path id="ArialMT-29" d="M 791 -1347 
L 388 -1347 
Q 1322 153 1322 1656 
Q 1322 2244 1188 2822 
Q 1081 3291 891 3722 
Q 769 4003 388 4659 
L 791 4659 
Q 1378 3875 1659 3084 
Q 1900 2403 1900 1659 
Q 1900 816 1576 28 
Q 1253 -759 791 -1347 
z
" transform="scale(0.015625)"/>
     </defs>
     <use xlink:href="#ArialMT-41"/>
     <use xlink:href="#ArialMT-6c" transform="translate(66.699219 0)"/>
     <use xlink:href="#ArialMT-67" transform="translate(88.916016 0)"/>
     <use xlink:href="#ArialMT-6f" transform="translate(144.53125 0)"/>
     <use xlink:href="#ArialMT-72" transform="translate(200.146484 0)"/>
     <use xlink:href="#ArialMT-69" transform="translate(233.447266 0)"/>
     <use xlink:href="#ArialMT-74" transform="translate(255.664062 0)"/>
     <use xlink:href="#ArialMT-68" transform="translate(283.447266 0)"/>
     <use xlink:href="#ArialMT-6d" transform="translate(339.0625 0)"/>
     <use xlink:href="#ArialMT-20" transform="translate(422.363281 0)"/>
     <use xlink:href="#ArialMT-51" transform="translate(450.146484 0)"/>
     <use xlink:href="#ArialMT-75" transform="translate(527.929688 0)"/>
     <use xlink:href="#ArialMT-61" transform="translate(583.544922 0)"/>
     <use xlink:href="#ArialMT-6c" transform="translate(639.160156 0)"/>
     <use xlink:href="#ArialMT-69" transform="translate(661.376953 0)"/>
     <use xlink:href="#ArialMT-74" transform="translate(683.59375 0)"/>
     <use xlink:href="#ArialMT-79" transform="translate(711.376953 0)"/>
     <use xlink:href="#ArialMT-20" transform="translate(761.376953 0)"/>
     <use xlink:href="#ArialMT-53" transform="translate(789.160156 0)"/>
     <use xlink:href="#ArialMT-74" transform="translate(855.859375 0)"/>
     <use xlink:href="#ArialMT-61" transform="translate(883.642578 0)"/>
     <use xlink:href="#ArialMT-6e" transform="translate(939.257812 0)"/>
     <use xlink:href="#ArialMT-64" transform="translate(994.873047 0)"/>
     <use xlink:href="#ArialMT-61" transform="translate(1050.488281 0)"/>
     <use xlink:href="#ArialMT-72" transform="translate(1106.103516 0)"/>
     <use xlink:href="#ArialMT-64" transform="translate(1139.404297 0)"/>
     <use xlink:href="#ArialMT-20" transform="translate(1195.019531 0)"/>
     <use xlink:href="#ArialMT-44" transform="translate(1222.802734 0)"/>
     <use xlink:href="#ArialMT-65" transform="translate(1295.019531 0)"/>
     <use xlink:href="#ArialMT-76" transform="translate(1350.634766 0)"/>
     <use xlink:href="#ArialMT-69" transform="translate(1400.634766 0)"/>
     <use xlink:href="#ArialMT-61" transform="translate(1422.851562 0)"/>
     <use xlink:href="#ArialMT-74" transform="translate(1478.466797 0)"/>
     <use xlink:href="#ArialMT-69" transform="translate(1506.25 0)"/>
     <use xlink:href="#ArialMT-6f" transform="translate(1528.466797 0)"/>
     <use xlink:href="#ArialMT-6e" transform="translate(1584.082031 0)"/>
     <use xlink:href="#ArialMT-20" transform="translate(1639.697266 0)"/>
     <use xlink:href="#ArialMT-70" transform="translate(1667.480469 0)"/>
     <use xlink:href="#ArialMT-65" transform="translate(1723.095703 0)"/>
     <use xlink:href="#ArialMT-72" transform="translate(1778.710938 0)"/>
     <use xlink:href="#ArialMT-20" transform="translate(1812.011719 0)"/>
     <use xlink:href="#ArialMT-49" transform="translate(1839.794922 0)"/>
     <use xlink:href="#ArialMT-6e" transform="translate(1867.578125 0)"/>
     <use xlink:href="#ArialMT-73" transform="translate(1923.193359 0)"/>
     <use xlink:href="#ArialMT-74" transform="translate(1973.193359 0)"/>
     <use xlink:href="#ArialMT-61" transform="translate(2000.976562 0)"/>
     <use xlink:href="#ArialMT-6e" transform="translate(2056.591797 0)"/>
     <use xlink:href="#ArialMT-63" transform="translate(2112.207031 0)"/>
     <use xlink:href="#ArialMT-65" transform="translate(2162.207031 0)"/>
     <use xlink:href="#ArialMT-20" transform="translate(2217.822266 0)"/>
     <use xlink:href="#ArialMT-28" transform="translate(2245.605469 0)"/>
     <use xlink:href="#ArialMT-4c" transform="translate(2278.90625 0)"/>
     <use xlink:href="#ArialMT-6f" transform="translate(2334.521484 0)"/>
     <use xlink:href="#ArialMT-67" transform="translate(2390.136719 0)"/>
     <use xlink:href="#ArialMT-20" transform="translate(2445.751953 0)"/>
     <use xlink:href="#ArialMT-73" transform="translate(2473.535156 0)"/>
     <use xlink:href="#ArialMT-63" transform="translate(2523.535156 0)"/>
     <use xlink:href="#ArialMT-61" transform="translate(2573.535156 0)"/>
     <use xlink:href="#ArialMT-6c" transform="translate(2629.150391 0)"/>
     <use xlink:href="#ArialMT-65" transform="translate(2651.367188 0)"/>
     <use xlink:href="#ArialMT-29" transform="translate(2706.982422 0)"/>
    </g>
   </g>
   <g id="legend_1">
    <g id="patch_7">
     <path d="M 606.947031 171.399687 
L 769.9 171.399687 
Q 772.1 171.399687 772.1 169.199687 
L 772.1 59.54 
Q 772.1 57.34 769.9 57.34 
L 606.947031 57.34 
Q 604.747031 57.34 604.747031 59.54 
L 604.747031 169.199687 
Q 604.747031 171.399687 606.947031 171.399687 
z
" style="fill: #ffffff; opacity: 0.8; stroke: #cccccc; stroke-linejoin: miter"/>
    </g>
    <g id="line2d_20">
     <path d="M 609.147031 65.897656 
L 620.147031 65.897656 
L 631.147031 65.897656 
" style="fill: none; stroke: #999999; stroke-width: 1.5; stroke-linecap: round"/>
     <g>
      <use xlink:href="#m045a8ec9cf" x="620.147031" y="65.897656" style="fill: #999999; stroke: #999999"/>
     </g>
    </g>
    <g id="text_16">
     <!-- iterativeImprovement (std) -->
     <g style="fill: #262626" transform="translate(639.947031 69.747656) scale(0.11 -0.11)">
      <use xlink:href="#ArialMT-69"/>
      <use xlink:href="#ArialMT-74" transform="translate(22.216797 0)"/>
      <use xlink:href="#ArialMT-65" transform="translate(50 0)"/>
      <use xlink:href="#ArialMT-72" transform="translate(105.615234 0)"/>
      <use xlink:href="#ArialMT-61" transform="translate(138.916016 0)"/>
      <use xlink:href="#ArialMT-74" transform="translate(194.53125 0)"/>
      <use xlink:href="#ArialMT-69" transform="translate(222.314453 0)"/>
      <use xlink:href="#ArialMT-76" transform="translate(244.53125 0)"/>
      <use xlink:href="#ArialMT-65" transform="translate(294.53125 0)"/>
      <use xlink:href="#ArialMT-49" transform="translate(350.146484 0)"/>
      <use xlink:href="#ArialMT-6d" transform="translate(377.929688 0)"/>
      <use xlink:href="#ArialMT-70" transform="translate(461.230469 0)"/>
      <use xlink:href="#ArialMT-72" transform="translate(516.845703 0)"/>
      <use xlink:href="#ArialMT-6f" transform="translate(550.146484 0)"/>
      <use xlink:href="#ArialMT-76" transform="translate(605.761719 0)"/>
      <use xlink:href="#ArialMT-65" transform="translate(655.761719 0)"/>
      <use xlink:href="#ArialMT-6d" transform="translate(711.376953 0)"/>
      <use xlink:href="#ArialMT-65" transform="translate(794.677734 0)"/>
      <use xlink:href="#ArialMT-6e" transform="translate(850.292969 0)"/>
      <use xlink:href="#ArialMT-74" transform="translate(905.908203 0)"/>
      <use xlink:href="#ArialMT-20" transform="translate(933.691406 0)"/>
      <use xlink:href="#ArialMT-28" transform="translate(961.474609 0)"/>
      <use xlink:href="#ArialMT-73" transform="translate(994.775391 0)"/>
      <use xlink:href="#ArialMT-74" transform="translate(1044.775391 0)"/>
      <use xlink:href="#ArialMT-64" transform="translate(1072.558594 0)"/>
      <use xlink:href="#ArialMT-29" transform="translate(1128.173828 0)"/>
     </g>
    </g>
    <g id="line2d_21">
     <path d="M 609.147031 81.720469 
L 620.147031 81.720469 
L 631.147031 81.720469 
" style="fill: none; stroke: #a65628; stroke-width: 1.5; stroke-linecap: round"/>
     <g>
      <use xlink:href="#m6e79278371" x="620.147031" y="81.720469" style="fill: #a65628; stroke: #a65628"/>
     </g>
    </g>
    <g id="text_17">
     <!-- antiheuristic (std) -->
     <g style="fill: #262626" transform="translate(639.947031 85.570469) scale(0.11 -0.11)">
      <use xlink:href="#ArialMT-61"/>
      <use xlink:href="#ArialMT-6e" transform="translate(55.615234 0)"/>
      <use xlink:href="#ArialMT-74" transform="translate(111.230469 0)"/>
      <use xlink:href="#ArialMT-69" transform="translate(139.013672 0)"/>
      <use xlink:href="#ArialMT-68" transform="translate(161.230469 0)"/>
      <use xlink:href="#ArialMT-65" transform="translate(216.845703 0)"/>
      <use xlink:href="#ArialMT-75" transform="translate(272.460938 0)"/>
      <use xlink:href="#ArialMT-72" transform="translate(328.076172 0)"/>
      <use xlink:href="#ArialMT-69" transform="translate(361.376953 0)"/>
      <use xlink:href="#ArialMT-73" transform="translate(383.59375 0)"/>
      <use xlink:href="#ArialMT-74" transform="translate(433.59375 0)"/>
      <use xlink:href="#ArialMT-69" transform="translate(461.376953 0)"/>
      <use xlink:href="#ArialMT-63" transform="translate(483.59375 0)"/>
      <use xlink:href="#ArialMT-20" transform="translate(533.59375 0)"/>
      <use xlink:href="#ArialMT-28" transform="translate(561.376953 0)"/>
      <use xlink:href="#ArialMT-73" transform="translate(594.677734 0)"/>
      <use xlink:href="#ArialMT-74" transform="translate(644.677734 0)"/>
      <use xlink:href="#ArialMT-64" transform="translate(672.460938 0)"/>
      <use xlink:href="#ArialMT-29" transform="translate(728.076172 0)"/>
     </g>
    </g>
    <g id="line2d_22">
     <path d="M 609.147031 97.543281 
L 620.147031 97.543281 
L 631.147031 97.543281 
" style="fill: none; stroke: #377eb8; stroke-width: 1.5; stroke-linecap: round"/>
     <g>
      <use xlink:href="#mbc08f38257" x="620.147031" y="97.543281" style="fill: #377eb8; stroke: #377eb8"/>
     </g>
    </g>
    <g id="text_18">
     <!-- steepestLS (std) -->
     <g style="fill: #262626" transform="translate(639.947031 101.393281) scale(0.11 -0.11)">
      <use xlink:href="#ArialMT-73"/>
      <use xlink:href="#ArialMT-74" transform="translate(50 0)"/>
      <use xlink:href="#ArialMT-65" transform="translate(77.783203 0)"/>
      <use xlink:href="#ArialMT-65" transform="translate(133.398438 0)"/>
      <use xlink:href="#ArialMT-70" transform="translate(189.013672 0)"/>
      <use xlink:href="#ArialMT-65" transform="translate(244.628906 0)"/>
      <use xlink:href="#ArialMT-73" transform="translate(300.244141 0)"/>
      <use xlink:href="#ArialMT-74" transform="translate(350.244141 0)"/>
      <use xlink:href="#ArialMT-4c" transform="translate(378.027344 0)"/>
      <use xlink:href="#ArialMT-53" transform="translate(433.642578 0)"/>
      <use xlink:href="#ArialMT-20" transform="translate(500.341797 0)"/>
      <use xlink:href="#ArialMT-28" transform="translate(528.125 0)"/>
      <use xlink:href="#ArialMT-73" transform="translate(561.425781 0)"/>
      <use xlink:href="#ArialMT-74" transform="translate(611.425781 0)"/>
      <use xlink:href="#ArialMT-64" transform="translate(639.208984 0)"/>
      <use xlink:href="#ArialMT-29" transform="translate(694.824219 0)"/>
     </g>
    </g>
    <g id="line2d_23">
     <path d="M 609.147031 113.366094 
L 620.147031 113.366094 
L 631.147031 113.366094 
" style="fill: none; stroke: #984ea3; stroke-width: 1.5; stroke-linecap: round"/>
     <g>
      <use xlink:href="#m62e16de499" x="620.147031" y="113.366094" style="fill: #984ea3; stroke: #984ea3"/>
     </g>
    </g>
    <g id="text_19">
     <!-- randomsearch (std) -->
     <g style="fill: #262626" transform="translate(639.947031 117.216094) scale(0.11 -0.11)">
      <use xlink:href="#ArialMT-72"/>
      <use xlink:href="#ArialMT-61" transform="translate(33.300781 0)"/>
      <use xlink:href="#ArialMT-6e" transform="translate(88.916016 0)"/>
      <use xlink:href="#ArialMT-64" transform="translate(144.53125 0)"/>
      <use xlink:href="#ArialMT-6f" transform="translate(200.146484 0)"/>
      <use xlink:href="#ArialMT-6d" transform="translate(255.761719 0)"/>
      <use xlink:href="#ArialMT-73" transform="translate(339.0625 0)"/>
      <use xlink:href="#ArialMT-65" transform="translate(389.0625 0)"/>
      <use xlink:href="#ArialMT-61" transform="translate(444.677734 0)"/>
      <use xlink:href="#ArialMT-72" transform="translate(500.292969 0)"/>
      <use xlink:href="#ArialMT-63" transform="translate(533.59375 0)"/>
      <use xlink:href="#ArialMT-68" transform="translate(583.59375 0)"/>
      <use xlink:href="#ArialMT-20" transform="translate(639.208984 0)"/>
      <use xlink:href="#ArialMT-28" transform="translate(666.992188 0)"/>
      <use xlink:href="#ArialMT-73" transform="translate(700.292969 0)"/>
      <use xlink:href="#ArialMT-74" transform="translate(750.292969 0)"/>
      <use xlink:href="#ArialMT-64" transform="translate(778.076172 0)"/>
      <use xlink:href="#ArialMT-29" transform="translate(833.691406 0)"/>
     </g>
    </g>
    <g id="line2d_24">
     <path d="M 609.147031 129.188906 
L 620.147031 129.188906 
L 631.147031 129.188906 
" style="fill: none; stroke: #4daf4a; stroke-width: 1.5; stroke-linecap: round"/>
     <g>
      <use xlink:href="#mf9004c6f81" x="620.147031" y="129.188906" style="fill: #4daf4a; stroke: #4daf4a"/>
     </g>
    </g>
    <g id="text_20">
     <!-- heuristic (std) -->
     <g style="fill: #262626" transform="translate(639.947031 133.038906) scale(0.11 -0.11)">
      <use xlink:href="#ArialMT-68"/>
      <use xlink:href="#ArialMT-65" transform="translate(55.615234 0)"/>
      <use xlink:href="#ArialMT-75" transform="translate(111.230469 0)"/>
      <use xlink:href="#ArialMT-72" transform="translate(166.845703 0)"/>
      <use xlink:href="#ArialMT-69" transform="translate(200.146484 0)"/>
      <use xlink:href="#ArialMT-73" transform="translate(222.363281 0)"/>
      <use xlink:href="#ArialMT-74" transform="translate(272.363281 0)"/>
      <use xlink:href="#ArialMT-69" transform="translate(300.146484 0)"/>
      <use xlink:href="#ArialMT-63" transform="translate(322.363281 0)"/>
      <use xlink:href="#ArialMT-20" transform="translate(372.363281 0)"/>
      <use xlink:href="#ArialMT-28" transform="translate(400.146484 0)"/>
      <use xlink:href="#ArialMT-73" transform="translate(433.447266 0)"/>
      <use xlink:href="#ArialMT-74" transform="translate(483.447266 0)"/>
      <use xlink:href="#ArialMT-64" transform="translate(511.230469 0)"/>
      <use xlink:href="#ArialMT-29" transform="translate(566.845703 0)"/>
     </g>
    </g>
    <g id="line2d_25">
     <path d="M 609.147031 145.011719 
L 620.147031 145.011719 
L 631.147031 145.011719 
" style="fill: none; stroke: #e41a1c; stroke-width: 1.5; stroke-linecap: round"/>
     <g>
      <use xlink:href="#m19132d7981" x="620.147031" y="145.011719" style="fill: #e41a1c; stroke: #e41a1c"/>
     </g>
    </g>
    <g id="text_21">
     <!-- greedyLS (std) -->
     <g style="fill: #262626" transform="translate(639.947031 148.861719) scale(0.11 -0.11)">
      <use xlink:href="#ArialMT-67"/>
      <use xlink:href="#ArialMT-72" transform="translate(55.615234 0)"/>
      <use xlink:href="#ArialMT-65" transform="translate(88.916016 0)"/>
      <use xlink:href="#ArialMT-65" transform="translate(144.53125 0)"/>
      <use xlink:href="#ArialMT-64" transform="translate(200.146484 0)"/>
      <use xlink:href="#ArialMT-79" transform="translate(255.761719 0)"/>
      <use xlink:href="#ArialMT-4c" transform="translate(305.761719 0)"/>
      <use xlink:href="#ArialMT-53" transform="translate(361.376953 0)"/>
      <use xlink:href="#ArialMT-20" transform="translate(428.076172 0)"/>
      <use xlink:href="#ArialMT-28" transform="translate(455.859375 0)"/>
      <use xlink:href="#ArialMT-73" transform="translate(489.160156 0)"/>
      <use xlink:href="#ArialMT-74" transform="translate(539.160156 0)"/>
      <use xlink:href="#ArialMT-64" transform="translate(566.943359 0)"/>
      <use xlink:href="#ArialMT-29" transform="translate(622.558594 0)"/>
     </g>
    </g>
    <g id="line2d_26">
     <path d="M 609.147031 160.834531 
L 620.147031 160.834531 
L 631.147031 160.834531 
" style="fill: none; stroke: #fdb462; stroke-width: 1.5; stroke-linecap: round"/>
     <g>
      <use xlink:href="#m74d51d1242" x="620.147031" y="160.834531" style="fill: #fdb462; stroke: #fdb462"/>
     </g>
    </g>
    <g id="text_22">
     <!-- randomwalk (std) -->
     <g style="fill: #262626" transform="translate(639.947031 164.684531) scale(0.11 -0.11)">
      <use xlink:href="#ArialMT-72"/>
      <use xlink:href="#ArialMT-61" transform="translate(33.300781 0)"/>
      <use xlink:href="#ArialMT-6e" transform="translate(88.916016 0)"/>
      <use xlink:href="#ArialMT-64" transform="translate(144.53125 0)"/>
      <use xlink:href="#ArialMT-6f" transform="translate(200.146484 0)"/>
      <use xlink:href="#ArialMT-6d" transform="translate(255.761719 0)"/>
      <use xlink:href="#ArialMT-77" transform="translate(339.0625 0)"/>
      <use xlink:href="#ArialMT-61" transform="translate(411.279297 0)"/>
      <use xlink:href="#ArialMT-6c" transform="translate(466.894531 0)"/>
      <use xlink:href="#ArialMT-6b" transform="translate(489.111328 0)"/>
      <use xlink:href="#ArialMT-20" transform="translate(539.111328 0)"/>
      <use xlink:href="#ArialMT-28" transform="translate(566.894531 0)"/>
      <use xlink:href="#ArialMT-73" transform="translate(600.195312 0)"/>
      <use xlink:href="#ArialMT-74" transform="translate(650.195312 0)"/>
      <use xlink:href="#ArialMT-64" transform="translate(677.978516 0)"/>
      <use xlink:href="#ArialMT-29" transform="translate(733.59375 0)"/>
     </g>
    </g>
   </g>
  </g>
 </g>
 <defs>
  <clipPath id="peed03e881f">
   <rect x="108" y="51.84" width="669.6" height="332.64"/>
  </clipPath>
 </defs>
</svg>
