<?xml version="1.0" encoding="utf-8" standalone="no"?>
<!DOCTYPE svg PUBLIC "-//W3C//DTD SVG 1.1//EN"
  "http://www.w3.org/Graphics/SVG/1.1/DTD/svg11.dtd">
<svg xmlns:xlink="http://www.w3.org/1999/xlink" width="720pt" height="432pt" viewBox="0 0 720 432" xmlns="http://www.w3.org/2000/svg" version="1.1">
 <metadata>
  <rdf:RDF xmlns:dc="http://purl.org/dc/elements/1.1/" xmlns:cc="http://creativecommons.org/ns#" xmlns:rdf="http://www.w3.org/1999/02/22-rdf-syntax-ns#">
   <cc:Work>
    <dc:type rdf:resource="http://purl.org/dc/dcmitype/StillImage"/>
    <dc:date>2025-04-05T13:25:24.043141</dc:date>
    <dc:format>image/svg+xml</dc:format>
    <dc:creator>
     <cc:Agent>
      <dc:title>Matplotlib v3.10.1, https://matplotlib.org/</dc:title>
     </cc:Agent>
    </dc:creator>
   </cc:Work>
  </rdf:RDF>
 </metadata>
 <defs>
  <style type="text/css">*{stroke-linejoin: round; stroke-linecap: butt}</style>
 </defs>
 <g id="figure_1">
  <g id="patch_1">
   <path d="M 0 432 
L 720 432 
L 720 0 
L 0 0 
z
" style="fill: #ffffff"/>
  </g>
  <g id="axes_1">
   <g id="patch_2">
    <path d="M 90 384.48 
L 648 384.48 
L 648 51.84 
L 90 51.84 
z
" style="fill: #ffffff"/>
   </g>
   <g id="matplotlib.axis_1">
    <g id="xtick_1">
     <g id="line2d_1">
      <path d="M 115.363636 384.48 
L 115.363636 51.84 
" clip-path="url(#p6cff9e2ffa)" style="fill: none; stroke: #cccccc; stroke-linecap: round"/>
     </g>
     <g id="text_1">
      <!-- had14 -->
      <g style="fill: #262626" transform="translate(106.56093 421.174443) rotate(-45) scale(0.11 -0.11)">
       <defs>
        <path id="ArialMT-68" d="M 422 0 
L 422 4581 
L 984 4581 
L 984 2938 
Q 1378 3394 1978 3394 
Q 2347 3394 2619 3248 
Q 2891 3103 3008 2847 
Q 3125 2591 3125 2103 
L 3125 0 
L 2563 0 
L 2563 2103 
Q 2563 2525 2380 2717 
Q 2197 2909 1863 2909 
Q 1613 2909 1392 2779 
Q 1172 2650 1078 2428 
Q 984 2206 984 1816 
L 984 0 
L 422 0 
z
" transform="scale(0.015625)"/>
        <path id="ArialMT-61" d="M 2588 409 
Q 2275 144 1986 34 
Q 1697 -75 1366 -75 
Q 819 -75 525 192 
Q 231 459 231 875 
Q 231 1119 342 1320 
Q 453 1522 633 1644 
Q 813 1766 1038 1828 
Q 1203 1872 1538 1913 
Q 2219 1994 2541 2106 
Q 2544 2222 2544 2253 
Q 2544 2597 2384 2738 
Q 2169 2928 1744 2928 
Q 1347 2928 1158 2789 
Q 969 2650 878 2297 
L 328 2372 
Q 403 2725 575 2942 
Q 747 3159 1072 3276 
Q 1397 3394 1825 3394 
Q 2250 3394 2515 3294 
Q 2781 3194 2906 3042 
Q 3031 2891 3081 2659 
Q 3109 2516 3109 2141 
L 3109 1391 
Q 3109 606 3145 398 
Q 3181 191 3288 0 
L 2700 0 
Q 2613 175 2588 409 
z
M 2541 1666 
Q 2234 1541 1622 1453 
Q 1275 1403 1131 1340 
Q 988 1278 909 1158 
Q 831 1038 831 891 
Q 831 666 1001 516 
Q 1172 366 1500 366 
Q 1825 366 2078 508 
Q 2331 650 2450 897 
Q 2541 1088 2541 1459 
L 2541 1666 
z
" transform="scale(0.015625)"/>
        <path id="ArialMT-64" d="M 2575 0 
L 2575 419 
Q 2259 -75 1647 -75 
Q 1250 -75 917 144 
Q 584 363 401 755 
Q 219 1147 219 1656 
Q 219 2153 384 2558 
Q 550 2963 881 3178 
Q 1213 3394 1622 3394 
Q 1922 3394 2156 3267 
Q 2391 3141 2538 2938 
L 2538 4581 
L 3097 4581 
L 3097 0 
L 2575 0 
z
M 797 1656 
Q 797 1019 1065 703 
Q 1334 388 1700 388 
Q 2069 388 2326 689 
Q 2584 991 2584 1609 
Q 2584 2291 2321 2609 
Q 2059 2928 1675 2928 
Q 1300 2928 1048 2622 
Q 797 2316 797 1656 
z
" transform="scale(0.015625)"/>
        <path id="ArialMT-31" d="M 2384 0 
L 1822 0 
L 1822 3584 
Q 1619 3391 1289 3197 
Q 959 3003 697 2906 
L 697 3450 
Q 1169 3672 1522 3987 
Q 1875 4303 2022 4600 
L 2384 4600 
L 2384 0 
z
" transform="scale(0.015625)"/>
        <path id="ArialMT-34" d="M 2069 0 
L 2069 1097 
L 81 1097 
L 81 1613 
L 2172 4581 
L 2631 4581 
L 2631 1613 
L 3250 1613 
L 3250 1097 
L 2631 1097 
L 2631 0 
L 2069 0 
z
M 2069 1613 
L 2069 3678 
L 634 1613 
L 2069 1613 
z
" transform="scale(0.015625)"/>
       </defs>
       <use xlink:href="#ArialMT-68"/>
       <use xlink:href="#ArialMT-61" transform="translate(55.615234 0)"/>
       <use xlink:href="#ArialMT-64" transform="translate(111.230469 0)"/>
       <use xlink:href="#ArialMT-31" transform="translate(166.845703 0)"/>
       <use xlink:href="#ArialMT-34" transform="translate(222.460938 0)"/>
      </g>
     </g>
    </g>
    <g id="xtick_2">
     <g id="line2d_2">
      <path d="M 178.772727 384.48 
L 178.772727 51.84 
" clip-path="url(#p6cff9e2ffa)" style="fill: none; stroke: #cccccc; stroke-linecap: round"/>
     </g>
     <g id="text_2">
      <!-- chr20c -->
      <g style="fill: #262626" transform="translate(169.111384 422.891718) rotate(-45) scale(0.11 -0.11)">
       <defs>
        <path id="ArialMT-63" d="M 2588 1216 
L 3141 1144 
Q 3050 572 2676 248 
Q 2303 -75 1759 -75 
Q 1078 -75 664 370 
Q 250 816 250 1647 
Q 250 2184 428 2587 
Q 606 2991 970 3192 
Q 1334 3394 1763 3394 
Q 2303 3394 2647 3120 
Q 2991 2847 3088 2344 
L 2541 2259 
Q 2463 2594 2264 2762 
Q 2066 2931 1784 2931 
Q 1359 2931 1093 2626 
Q 828 2322 828 1663 
Q 828 994 1084 691 
Q 1341 388 1753 388 
Q 2084 388 2306 591 
Q 2528 794 2588 1216 
z
" transform="scale(0.015625)"/>
        <path id="ArialMT-72" d="M 416 0 
L 416 3319 
L 922 3319 
L 922 2816 
Q 1116 3169 1280 3281 
Q 1444 3394 1641 3394 
Q 1925 3394 2219 3213 
L 2025 2691 
Q 1819 2813 1613 2813 
Q 1428 2813 1281 2702 
Q 1134 2591 1072 2394 
Q 978 2094 978 1738 
L 978 0 
L 416 0 
z
" transform="scale(0.015625)"/>
        <path id="ArialMT-32" d="M 3222 541 
L 3222 0 
L 194 0 
Q 188 203 259 391 
Q 375 700 629 1000 
Q 884 1300 1366 1694 
Q 2113 2306 2375 2664 
Q 2638 3022 2638 3341 
Q 2638 3675 2398 3904 
Q 2159 4134 1775 4134 
Q 1369 4134 1125 3890 
Q 881 3647 878 3216 
L 300 3275 
Q 359 3922 746 4261 
Q 1134 4600 1788 4600 
Q 2447 4600 2831 4234 
Q 3216 3869 3216 3328 
Q 3216 3053 3103 2787 
Q 2991 2522 2730 2228 
Q 2469 1934 1863 1422 
Q 1356 997 1212 845 
Q 1069 694 975 541 
L 3222 541 
z
" transform="scale(0.015625)"/>
        <path id="ArialMT-30" d="M 266 2259 
Q 266 3072 433 3567 
Q 600 4063 929 4331 
Q 1259 4600 1759 4600 
Q 2128 4600 2406 4451 
Q 2684 4303 2865 4023 
Q 3047 3744 3150 3342 
Q 3253 2941 3253 2259 
Q 3253 1453 3087 958 
Q 2922 463 2592 192 
Q 2263 -78 1759 -78 
Q 1097 -78 719 397 
Q 266 969 266 2259 
z
M 844 2259 
Q 844 1131 1108 757 
Q 1372 384 1759 384 
Q 2147 384 2411 759 
Q 2675 1134 2675 2259 
Q 2675 3391 2411 3762 
Q 2147 4134 1753 4134 
Q 1366 4134 1134 3806 
Q 844 3388 844 2259 
z
" transform="scale(0.015625)"/>
       </defs>
       <use xlink:href="#ArialMT-63"/>
       <use xlink:href="#ArialMT-68" transform="translate(50 0)"/>
       <use xlink:href="#ArialMT-72" transform="translate(105.615234 0)"/>
       <use xlink:href="#ArialMT-32" transform="translate(138.916016 0)"/>
       <use xlink:href="#ArialMT-30" transform="translate(194.53125 0)"/>
       <use xlink:href="#ArialMT-63" transform="translate(250.146484 0)"/>
      </g>
     </g>
    </g>
    <g id="xtick_3">
     <g id="line2d_3">
      <path d="M 242.181818 384.48 
L 242.181818 51.84 
" clip-path="url(#p6cff9e2ffa)" style="fill: none; stroke: #cccccc; stroke-linecap: round"/>
     </g>
     <g id="text_3">
      <!-- chr22a -->
      <g style="fill: #262626" transform="translate(232.302321 423.328025) rotate(-45) scale(0.11 -0.11)">
       <use xlink:href="#ArialMT-63"/>
       <use xlink:href="#ArialMT-68" transform="translate(50 0)"/>
       <use xlink:href="#ArialMT-72" transform="translate(105.615234 0)"/>
       <use xlink:href="#ArialMT-32" transform="translate(138.916016 0)"/>
       <use xlink:href="#ArialMT-32" transform="translate(194.53125 0)"/>
       <use xlink:href="#ArialMT-61" transform="translate(250.146484 0)"/>
      </g>
     </g>
    </g>
    <g id="xtick_4">
     <g id="line2d_4">
      <path d="M 305.590909 384.48 
L 305.590909 51.84 
" clip-path="url(#p6cff9e2ffa)" style="fill: none; stroke: #cccccc; stroke-linecap: round"/>
     </g>
     <g id="text_4">
      <!-- bur26b -->
      <g style="fill: #262626" transform="translate(295.493259 423.764332) rotate(-45) scale(0.11 -0.11)">
       <defs>
        <path id="ArialMT-62" d="M 941 0 
L 419 0 
L 419 4581 
L 981 4581 
L 981 2947 
Q 1338 3394 1891 3394 
Q 2197 3394 2470 3270 
Q 2744 3147 2920 2923 
Q 3097 2700 3197 2384 
Q 3297 2069 3297 1709 
Q 3297 856 2875 390 
Q 2453 -75 1863 -75 
Q 1275 -75 941 416 
L 941 0 
z
M 934 1684 
Q 934 1088 1097 822 
Q 1363 388 1816 388 
Q 2184 388 2453 708 
Q 2722 1028 2722 1663 
Q 2722 2313 2464 2622 
Q 2206 2931 1841 2931 
Q 1472 2931 1203 2611 
Q 934 2291 934 1684 
z
" transform="scale(0.015625)"/>
        <path id="ArialMT-75" d="M 2597 0 
L 2597 488 
Q 2209 -75 1544 -75 
Q 1250 -75 995 37 
Q 741 150 617 320 
Q 494 491 444 738 
Q 409 903 409 1263 
L 409 3319 
L 972 3319 
L 972 1478 
Q 972 1038 1006 884 
Q 1059 663 1231 536 
Q 1403 409 1656 409 
Q 1909 409 2131 539 
Q 2353 669 2445 892 
Q 2538 1116 2538 1541 
L 2538 3319 
L 3100 3319 
L 3100 0 
L 2597 0 
z
" transform="scale(0.015625)"/>
        <path id="ArialMT-36" d="M 3184 3459 
L 2625 3416 
Q 2550 3747 2413 3897 
Q 2184 4138 1850 4138 
Q 1581 4138 1378 3988 
Q 1113 3794 959 3422 
Q 806 3050 800 2363 
Q 1003 2672 1297 2822 
Q 1591 2972 1913 2972 
Q 2475 2972 2870 2558 
Q 3266 2144 3266 1488 
Q 3266 1056 3080 686 
Q 2894 316 2569 119 
Q 2244 -78 1831 -78 
Q 1128 -78 684 439 
Q 241 956 241 2144 
Q 241 3472 731 4075 
Q 1159 4600 1884 4600 
Q 2425 4600 2770 4297 
Q 3116 3994 3184 3459 
z
M 888 1484 
Q 888 1194 1011 928 
Q 1134 663 1356 523 
Q 1578 384 1822 384 
Q 2178 384 2434 671 
Q 2691 959 2691 1453 
Q 2691 1928 2437 2201 
Q 2184 2475 1800 2475 
Q 1419 2475 1153 2201 
Q 888 1928 888 1484 
z
" transform="scale(0.015625)"/>
       </defs>
       <use xlink:href="#ArialMT-62"/>
       <use xlink:href="#ArialMT-75" transform="translate(55.615234 0)"/>
       <use xlink:href="#ArialMT-72" transform="translate(111.230469 0)"/>
       <use xlink:href="#ArialMT-32" transform="translate(144.53125 0)"/>
       <use xlink:href="#ArialMT-36" transform="translate(200.146484 0)"/>
       <use xlink:href="#ArialMT-62" transform="translate(255.761719 0)"/>
      </g>
     </g>
    </g>
    <g id="xtick_5">
     <g id="line2d_5">
      <path d="M 369 384.48 
L 369 51.84 
" clip-path="url(#p6cff9e2ffa)" style="fill: none; stroke: #cccccc; stroke-linecap: round"/>
     </g>
     <g id="text_5">
      <!-- bur26a -->
      <g style="fill: #262626" transform="translate(358.902349 423.764332) rotate(-45) scale(0.11 -0.11)">
       <use xlink:href="#ArialMT-62"/>
       <use xlink:href="#ArialMT-75" transform="translate(55.615234 0)"/>
       <use xlink:href="#ArialMT-72" transform="translate(111.230469 0)"/>
       <use xlink:href="#ArialMT-32" transform="translate(144.53125 0)"/>
       <use xlink:href="#ArialMT-36" transform="translate(200.146484 0)"/>
       <use xlink:href="#ArialMT-61" transform="translate(255.761719 0)"/>
      </g>
     </g>
    </g>
    <g id="xtick_6">
     <g id="line2d_6">
      <path d="M 432.409091 384.48 
L 432.409091 51.84 
" clip-path="url(#p6cff9e2ffa)" style="fill: none; stroke: #cccccc; stroke-linecap: round"/>
     </g>
     <g id="text_6">
      <!-- kra30a -->
      <g style="fill: #262626" transform="translate(422.529594 423.328025) rotate(-45) scale(0.11 -0.11)">
       <defs>
        <path id="ArialMT-6b" d="M 425 0 
L 425 4581 
L 988 4581 
L 988 1969 
L 2319 3319 
L 3047 3319 
L 1778 2088 
L 3175 0 
L 2481 0 
L 1384 1697 
L 988 1316 
L 988 0 
L 425 0 
z
" transform="scale(0.015625)"/>
        <path id="ArialMT-33" d="M 269 1209 
L 831 1284 
Q 928 806 1161 595 
Q 1394 384 1728 384 
Q 2125 384 2398 659 
Q 2672 934 2672 1341 
Q 2672 1728 2419 1979 
Q 2166 2231 1775 2231 
Q 1616 2231 1378 2169 
L 1441 2663 
Q 1497 2656 1531 2656 
Q 1891 2656 2178 2843 
Q 2466 3031 2466 3422 
Q 2466 3731 2256 3934 
Q 2047 4138 1716 4138 
Q 1388 4138 1169 3931 
Q 950 3725 888 3313 
L 325 3413 
Q 428 3978 793 4289 
Q 1159 4600 1703 4600 
Q 2078 4600 2393 4439 
Q 2709 4278 2876 4000 
Q 3044 3722 3044 3409 
Q 3044 3113 2884 2869 
Q 2725 2625 2413 2481 
Q 2819 2388 3044 2092 
Q 3269 1797 3269 1353 
Q 3269 753 2831 336 
Q 2394 -81 1725 -81 
Q 1122 -81 723 278 
Q 325 638 269 1209 
z
" transform="scale(0.015625)"/>
       </defs>
       <use xlink:href="#ArialMT-6b"/>
       <use xlink:href="#ArialMT-72" transform="translate(50 0)"/>
       <use xlink:href="#ArialMT-61" transform="translate(83.300781 0)"/>
       <use xlink:href="#ArialMT-33" transform="translate(138.916016 0)"/>
       <use xlink:href="#ArialMT-30" transform="translate(194.53125 0)"/>
       <use xlink:href="#ArialMT-61" transform="translate(250.146484 0)"/>
      </g>
     </g>
    </g>
    <g id="xtick_7">
     <g id="line2d_7">
      <path d="M 495.818182 384.48 
L 495.818182 51.84 
" clip-path="url(#p6cff9e2ffa)" style="fill: none; stroke: #cccccc; stroke-linecap: round"/>
     </g>
     <g id="text_7">
      <!-- tai60a -->
      <g style="fill: #262626" transform="translate(487.233629 420.738136) rotate(-45) scale(0.11 -0.11)">
       <defs>
        <path id="ArialMT-74" d="M 1650 503 
L 1731 6 
Q 1494 -44 1306 -44 
Q 1000 -44 831 53 
Q 663 150 594 308 
Q 525 466 525 972 
L 525 2881 
L 113 2881 
L 113 3319 
L 525 3319 
L 525 4141 
L 1084 4478 
L 1084 3319 
L 1650 3319 
L 1650 2881 
L 1084 2881 
L 1084 941 
Q 1084 700 1114 631 
Q 1144 563 1211 522 
Q 1278 481 1403 481 
Q 1497 481 1650 503 
z
" transform="scale(0.015625)"/>
        <path id="ArialMT-69" d="M 425 3934 
L 425 4581 
L 988 4581 
L 988 3934 
L 425 3934 
z
M 425 0 
L 425 3319 
L 988 3319 
L 988 0 
L 425 0 
z
" transform="scale(0.015625)"/>
       </defs>
       <use xlink:href="#ArialMT-74"/>
       <use xlink:href="#ArialMT-61" transform="translate(27.783203 0)"/>
       <use xlink:href="#ArialMT-69" transform="translate(83.398438 0)"/>
       <use xlink:href="#ArialMT-36" transform="translate(105.615234 0)"/>
       <use xlink:href="#ArialMT-30" transform="translate(161.230469 0)"/>
       <use xlink:href="#ArialMT-61" transform="translate(216.845703 0)"/>
      </g>
     </g>
    </g>
    <g id="xtick_8">
     <g id="line2d_8">
      <path d="M 559.227273 384.48 
L 559.227273 51.84 
" clip-path="url(#p6cff9e2ffa)" style="fill: none; stroke: #cccccc; stroke-linecap: round"/>
     </g>
     <g id="text_8">
      <!-- lipa80a -->
      <g style="fill: #262626" transform="translate(548.707899 424.653961) rotate(-45) scale(0.11 -0.11)">
       <defs>
        <path id="ArialMT-6c" d="M 409 0 
L 409 4581 
L 972 4581 
L 972 0 
L 409 0 
z
" transform="scale(0.015625)"/>
        <path id="ArialMT-70" d="M 422 -1272 
L 422 3319 
L 934 3319 
L 934 2888 
Q 1116 3141 1344 3267 
Q 1572 3394 1897 3394 
Q 2322 3394 2647 3175 
Q 2972 2956 3137 2557 
Q 3303 2159 3303 1684 
Q 3303 1175 3120 767 
Q 2938 359 2589 142 
Q 2241 -75 1856 -75 
Q 1575 -75 1351 44 
Q 1128 163 984 344 
L 984 -1272 
L 422 -1272 
z
M 931 1641 
Q 931 1000 1190 694 
Q 1450 388 1819 388 
Q 2194 388 2461 705 
Q 2728 1022 2728 1688 
Q 2728 2322 2467 2637 
Q 2206 2953 1844 2953 
Q 1484 2953 1207 2617 
Q 931 2281 931 1641 
z
" transform="scale(0.015625)"/>
        <path id="ArialMT-38" d="M 1131 2484 
Q 781 2613 612 2850 
Q 444 3088 444 3419 
Q 444 3919 803 4259 
Q 1163 4600 1759 4600 
Q 2359 4600 2725 4251 
Q 3091 3903 3091 3403 
Q 3091 3084 2923 2848 
Q 2756 2613 2416 2484 
Q 2838 2347 3058 2040 
Q 3278 1734 3278 1309 
Q 3278 722 2862 322 
Q 2447 -78 1769 -78 
Q 1091 -78 675 323 
Q 259 725 259 1325 
Q 259 1772 486 2073 
Q 713 2375 1131 2484 
z
M 1019 3438 
Q 1019 3113 1228 2906 
Q 1438 2700 1772 2700 
Q 2097 2700 2305 2904 
Q 2513 3109 2513 3406 
Q 2513 3716 2298 3927 
Q 2084 4138 1766 4138 
Q 1444 4138 1231 3931 
Q 1019 3725 1019 3438 
z
M 838 1322 
Q 838 1081 952 856 
Q 1066 631 1291 507 
Q 1516 384 1775 384 
Q 2178 384 2440 643 
Q 2703 903 2703 1303 
Q 2703 1709 2433 1975 
Q 2163 2241 1756 2241 
Q 1359 2241 1098 1978 
Q 838 1716 838 1322 
z
" transform="scale(0.015625)"/>
       </defs>
       <use xlink:href="#ArialMT-6c"/>
       <use xlink:href="#ArialMT-69" transform="translate(22.216797 0)"/>
       <use xlink:href="#ArialMT-70" transform="translate(44.433594 0)"/>
       <use xlink:href="#ArialMT-61" transform="translate(100.048828 0)"/>
       <use xlink:href="#ArialMT-38" transform="translate(155.664062 0)"/>
       <use xlink:href="#ArialMT-30" transform="translate(211.279297 0)"/>
       <use xlink:href="#ArialMT-61" transform="translate(266.894531 0)"/>
      </g>
     </g>
    </g>
    <g id="xtick_9">
     <g id="line2d_9">
      <path d="M 622.636364 384.48 
L 622.636364 51.84 
" clip-path="url(#p6cff9e2ffa)" style="fill: none; stroke: #cccccc; stroke-linecap: round"/>
     </g>
     <g id="text_9">
      <!-- wil100 -->
      <g style="fill: #262626" transform="translate(613.622188 421.597381) rotate(-45) scale(0.11 -0.11)">
       <defs>
        <path id="ArialMT-77" d="M 1034 0 
L 19 3319 
L 600 3319 
L 1128 1403 
L 1325 691 
Q 1338 744 1497 1375 
L 2025 3319 
L 2603 3319 
L 3100 1394 
L 3266 759 
L 3456 1400 
L 4025 3319 
L 4572 3319 
L 3534 0 
L 2950 0 
L 2422 1988 
L 2294 2553 
L 1622 0 
L 1034 0 
z
" transform="scale(0.015625)"/>
       </defs>
       <use xlink:href="#ArialMT-77"/>
       <use xlink:href="#ArialMT-69" transform="translate(72.216797 0)"/>
       <use xlink:href="#ArialMT-6c" transform="translate(94.433594 0)"/>
       <use xlink:href="#ArialMT-31" transform="translate(116.650391 0)"/>
       <use xlink:href="#ArialMT-30" transform="translate(172.265625 0)"/>
       <use xlink:href="#ArialMT-30" transform="translate(227.880859 0)"/>
      </g>
     </g>
    </g>
    <g id="text_10">
     <!-- Instance -->
     <g style="fill: #262626" transform="translate(346.32 438.789248) scale(0.12 -0.12)">
      <defs>
       <path id="ArialMT-49" d="M 597 0 
L 597 4581 
L 1203 4581 
L 1203 0 
L 597 0 
z
" transform="scale(0.015625)"/>
       <path id="ArialMT-6e" d="M 422 0 
L 422 3319 
L 928 3319 
L 928 2847 
Q 1294 3394 1984 3394 
Q 2284 3394 2536 3286 
Q 2788 3178 2913 3003 
Q 3038 2828 3088 2588 
Q 3119 2431 3119 2041 
L 3119 0 
L 2556 0 
L 2556 2019 
Q 2556 2363 2490 2533 
Q 2425 2703 2258 2804 
Q 2091 2906 1866 2906 
Q 1506 2906 1245 2678 
Q 984 2450 984 1813 
L 984 0 
L 422 0 
z
" transform="scale(0.015625)"/>
       <path id="ArialMT-73" d="M 197 991 
L 753 1078 
Q 800 744 1014 566 
Q 1228 388 1613 388 
Q 2000 388 2187 545 
Q 2375 703 2375 916 
Q 2375 1106 2209 1216 
Q 2094 1291 1634 1406 
Q 1016 1563 777 1677 
Q 538 1791 414 1992 
Q 291 2194 291 2438 
Q 291 2659 392 2848 
Q 494 3038 669 3163 
Q 800 3259 1026 3326 
Q 1253 3394 1513 3394 
Q 1903 3394 2198 3281 
Q 2494 3169 2634 2976 
Q 2775 2784 2828 2463 
L 2278 2388 
Q 2241 2644 2061 2787 
Q 1881 2931 1553 2931 
Q 1166 2931 1000 2803 
Q 834 2675 834 2503 
Q 834 2394 903 2306 
Q 972 2216 1119 2156 
Q 1203 2125 1616 2013 
Q 2213 1853 2448 1751 
Q 2684 1650 2818 1456 
Q 2953 1263 2953 975 
Q 2953 694 2789 445 
Q 2625 197 2315 61 
Q 2006 -75 1616 -75 
Q 969 -75 630 194 
Q 291 463 197 991 
z
" transform="scale(0.015625)"/>
       <path id="ArialMT-65" d="M 2694 1069 
L 3275 997 
Q 3138 488 2766 206 
Q 2394 -75 1816 -75 
Q 1088 -75 661 373 
Q 234 822 234 1631 
Q 234 2469 665 2931 
Q 1097 3394 1784 3394 
Q 2450 3394 2872 2941 
Q 3294 2488 3294 1666 
Q 3294 1616 3291 1516 
L 816 1516 
Q 847 969 1125 678 
Q 1403 388 1819 388 
Q 2128 388 2347 550 
Q 2566 713 2694 1069 
z
M 847 1978 
L 2700 1978 
Q 2663 2397 2488 2606 
Q 2219 2931 1791 2931 
Q 1403 2931 1139 2672 
Q 875 2413 847 1978 
z
" transform="scale(0.015625)"/>
      </defs>
      <use xlink:href="#ArialMT-49"/>
      <use xlink:href="#ArialMT-6e" transform="translate(27.783203 0)"/>
      <use xlink:href="#ArialMT-73" transform="translate(83.398438 0)"/>
      <use xlink:href="#ArialMT-74" transform="translate(133.398438 0)"/>
      <use xlink:href="#ArialMT-61" transform="translate(161.181641 0)"/>
      <use xlink:href="#ArialMT-6e" transform="translate(216.796875 0)"/>
      <use xlink:href="#ArialMT-63" transform="translate(272.412109 0)"/>
      <use xlink:href="#ArialMT-65" transform="translate(322.412109 0)"/>
     </g>
    </g>
   </g>
   <g id="matplotlib.axis_2">
    <g id="ytick_1">
     <g id="line2d_10">
      <path d="M 90 384.228669 
L 648 384.228669 
" clip-path="url(#p6cff9e2ffa)" style="fill: none; stroke: #cccccc; stroke-linecap: round"/>
     </g>
     <g id="text_11">
      <!-- $\mathdefault{10^{2}}$ -->
      <g style="fill: #262626" transform="translate(63.23 389.900544) scale(0.11 -0.11)">
       <use xlink:href="#ArialMT-31" transform="translate(0 0.99375)"/>
       <use xlink:href="#ArialMT-30" transform="translate(55.615234 0.99375)"/>
       <use xlink:href="#ArialMT-32" transform="translate(112.972813 70.6875) scale(0.7)"/>
      </g>
     </g>
    </g>
    <g id="ytick_2">
     <g id="line2d_11">
      <path d="M 90 339.191634 
L 648 339.191634 
" clip-path="url(#p6cff9e2ffa)" style="fill: none; stroke: #cccccc; stroke-linecap: round"/>
     </g>
     <g id="text_12">
      <!-- $\mathdefault{10^{3}}$ -->
      <g style="fill: #262626" transform="translate(63.23 344.863509) scale(0.11 -0.11)">
       <use xlink:href="#ArialMT-31" transform="translate(0 0.99375)"/>
       <use xlink:href="#ArialMT-30" transform="translate(55.615234 0.99375)"/>
       <use xlink:href="#ArialMT-33" transform="translate(112.972813 70.6875) scale(0.7)"/>
      </g>
     </g>
    </g>
    <g id="ytick_3">
     <g id="line2d_12">
      <path d="M 90 294.154599 
L 648 294.154599 
" clip-path="url(#p6cff9e2ffa)" style="fill: none; stroke: #cccccc; stroke-linecap: round"/>
     </g>
     <g id="text_13">
      <!-- $\mathdefault{10^{4}}$ -->
      <g style="fill: #262626" transform="translate(63.23 299.771474) scale(0.11 -0.11)">
       <use xlink:href="#ArialMT-31" transform="translate(0 0.201563)"/>
       <use xlink:href="#ArialMT-30" transform="translate(55.615234 0.201563)"/>
       <use xlink:href="#ArialMT-34" transform="translate(112.972813 69.895313) scale(0.7)"/>
      </g>
     </g>
    </g>
    <g id="ytick_4">
     <g id="line2d_13">
      <path d="M 90 249.117563 
L 648 249.117563 
" clip-path="url(#p6cff9e2ffa)" style="fill: none; stroke: #cccccc; stroke-linecap: round"/>
     </g>
     <g id="text_14">
      <!-- $\mathdefault{10^{5}}$ -->
      <g style="fill: #262626" transform="translate(63.23 254.734438) scale(0.11 -0.11)">
       <defs>
        <path id="ArialMT-35" d="M 266 1200 
L 856 1250 
Q 922 819 1161 601 
Q 1400 384 1738 384 
Q 2144 384 2425 690 
Q 2706 997 2706 1503 
Q 2706 1984 2436 2262 
Q 2166 2541 1728 2541 
Q 1456 2541 1237 2417 
Q 1019 2294 894 2097 
L 366 2166 
L 809 4519 
L 3088 4519 
L 3088 3981 
L 1259 3981 
L 1013 2750 
Q 1425 3038 1878 3038 
Q 2478 3038 2890 2622 
Q 3303 2206 3303 1553 
Q 3303 931 2941 478 
Q 2500 -78 1738 -78 
Q 1113 -78 717 272 
Q 322 622 266 1200 
z
" transform="scale(0.015625)"/>
       </defs>
       <use xlink:href="#ArialMT-31" transform="translate(0 0.879688)"/>
       <use xlink:href="#ArialMT-30" transform="translate(55.615234 0.879688)"/>
       <use xlink:href="#ArialMT-35" transform="translate(112.972813 70.573438) scale(0.7)"/>
      </g>
     </g>
    </g>
    <g id="ytick_5">
     <g id="line2d_14">
      <path d="M 90 204.080528 
L 648 204.080528 
" clip-path="url(#p6cff9e2ffa)" style="fill: none; stroke: #cccccc; stroke-linecap: round"/>
     </g>
     <g id="text_15">
      <!-- $\mathdefault{10^{6}}$ -->
      <g style="fill: #262626" transform="translate(63.23 209.752403) scale(0.11 -0.11)">
       <use xlink:href="#ArialMT-31" transform="translate(0 0.99375)"/>
       <use xlink:href="#ArialMT-30" transform="translate(55.615234 0.99375)"/>
       <use xlink:href="#ArialMT-36" transform="translate(112.972813 70.6875) scale(0.7)"/>
      </g>
     </g>
    </g>
    <g id="ytick_6">
     <g id="line2d_15">
      <path d="M 90 159.043493 
L 648 159.043493 
" clip-path="url(#p6cff9e2ffa)" style="fill: none; stroke: #cccccc; stroke-linecap: round"/>
     </g>
     <g id="text_16">
      <!-- $\mathdefault{10^{7}}$ -->
      <g style="fill: #262626" transform="translate(63.23 164.660368) scale(0.11 -0.11)">
       <defs>
        <path id="ArialMT-37" d="M 303 3981 
L 303 4522 
L 3269 4522 
L 3269 4084 
Q 2831 3619 2401 2847 
Q 1972 2075 1738 1259 
Q 1569 684 1522 0 
L 944 0 
Q 953 541 1156 1306 
Q 1359 2072 1739 2783 
Q 2119 3494 2547 3981 
L 303 3981 
z
" transform="scale(0.015625)"/>
       </defs>
       <use xlink:href="#ArialMT-31" transform="translate(0 0.846875)"/>
       <use xlink:href="#ArialMT-30" transform="translate(55.615234 0.846875)"/>
       <use xlink:href="#ArialMT-37" transform="translate(112.972813 70.540625) scale(0.7)"/>
      </g>
     </g>
    </g>
    <g id="ytick_7">
     <g id="line2d_16">
      <path d="M 90 114.006458 
L 648 114.006458 
" clip-path="url(#p6cff9e2ffa)" style="fill: none; stroke: #cccccc; stroke-linecap: round"/>
     </g>
     <g id="text_17">
      <!-- $\mathdefault{10^{8}}$ -->
      <g style="fill: #262626" transform="translate(63.23 119.678333) scale(0.11 -0.11)">
       <use xlink:href="#ArialMT-31" transform="translate(0 0.99375)"/>
       <use xlink:href="#ArialMT-30" transform="translate(55.615234 0.99375)"/>
       <use xlink:href="#ArialMT-38" transform="translate(112.972813 70.6875) scale(0.7)"/>
      </g>
     </g>
    </g>
    <g id="ytick_8">
     <g id="line2d_17">
      <path d="M 90 68.969423 
L 648 68.969423 
" clip-path="url(#p6cff9e2ffa)" style="fill: none; stroke: #cccccc; stroke-linecap: round"/>
     </g>
     <g id="text_18">
      <!-- $\mathdefault{10^{9}}$ -->
      <g style="fill: #262626" transform="translate(63.23 74.641298) scale(0.11 -0.11)">
       <defs>
        <path id="ArialMT-39" d="M 350 1059 
L 891 1109 
Q 959 728 1153 556 
Q 1347 384 1650 384 
Q 1909 384 2104 503 
Q 2300 622 2425 820 
Q 2550 1019 2634 1356 
Q 2719 1694 2719 2044 
Q 2719 2081 2716 2156 
Q 2547 1888 2255 1720 
Q 1963 1553 1622 1553 
Q 1053 1553 659 1965 
Q 266 2378 266 3053 
Q 266 3750 677 4175 
Q 1088 4600 1706 4600 
Q 2153 4600 2523 4359 
Q 2894 4119 3086 3673 
Q 3278 3228 3278 2384 
Q 3278 1506 3087 986 
Q 2897 466 2520 194 
Q 2144 -78 1638 -78 
Q 1100 -78 759 220 
Q 419 519 350 1059 
z
M 2653 3081 
Q 2653 3566 2395 3850 
Q 2138 4134 1775 4134 
Q 1400 4134 1122 3828 
Q 844 3522 844 3034 
Q 844 2597 1108 2323 
Q 1372 2050 1759 2050 
Q 2150 2050 2401 2323 
Q 2653 2597 2653 3081 
z
" transform="scale(0.015625)"/>
       </defs>
       <use xlink:href="#ArialMT-31" transform="translate(0 0.99375)"/>
       <use xlink:href="#ArialMT-30" transform="translate(55.615234 0.99375)"/>
       <use xlink:href="#ArialMT-39" transform="translate(112.972813 70.6875) scale(0.7)"/>
      </g>
     </g>
    </g>
    <g id="ytick_9"/>
    <g id="ytick_10"/>
    <g id="ytick_11"/>
    <g id="ytick_12"/>
    <g id="ytick_13"/>
    <g id="ytick_14"/>
    <g id="ytick_15"/>
    <g id="ytick_16"/>
    <g id="ytick_17"/>
    <g id="ytick_18"/>
    <g id="ytick_19"/>
    <g id="ytick_20"/>
    <g id="ytick_21"/>
    <g id="ytick_22"/>
    <g id="ytick_23"/>
    <g id="ytick_24"/>
    <g id="ytick_25"/>
    <g id="ytick_26"/>
    <g id="ytick_27"/>
    <g id="ytick_28"/>
    <g id="ytick_29"/>
    <g id="ytick_30"/>
    <g id="ytick_31"/>
    <g id="ytick_32"/>
    <g id="ytick_33"/>
    <g id="ytick_34"/>
    <g id="ytick_35"/>
    <g id="ytick_36"/>
    <g id="ytick_37"/>
    <g id="ytick_38"/>
    <g id="ytick_39"/>
    <g id="ytick_40"/>
    <g id="ytick_41"/>
    <g id="ytick_42"/>
    <g id="ytick_43"/>
    <g id="ytick_44"/>
    <g id="ytick_45"/>
    <g id="ytick_46"/>
    <g id="ytick_47"/>
    <g id="ytick_48"/>
    <g id="ytick_49"/>
    <g id="ytick_50"/>
    <g id="ytick_51"/>
    <g id="ytick_52"/>
    <g id="ytick_53"/>
    <g id="ytick_54"/>
    <g id="ytick_55"/>
    <g id="ytick_56"/>
    <g id="ytick_57"/>
    <g id="ytick_58"/>
    <g id="ytick_59"/>
    <g id="ytick_60"/>
    <g id="ytick_61"/>
    <g id="ytick_62"/>
    <g id="ytick_63"/>
    <g id="ytick_64"/>
    <g id="ytick_65"/>
    <g id="text_19">
     <!-- Runtime [ns] -->
     <g style="fill: #262626" transform="translate(56.845 251.837812) rotate(-90) scale(0.12 -0.12)">
      <defs>
       <path id="ArialMT-52" d="M 503 0 
L 503 4581 
L 2534 4581 
Q 3147 4581 3465 4457 
Q 3784 4334 3975 4021 
Q 4166 3709 4166 3331 
Q 4166 2844 3850 2509 
Q 3534 2175 2875 2084 
Q 3116 1969 3241 1856 
Q 3506 1613 3744 1247 
L 4541 0 
L 3778 0 
L 3172 953 
Q 2906 1366 2734 1584 
Q 2563 1803 2427 1890 
Q 2291 1978 2150 2013 
Q 2047 2034 1813 2034 
L 1109 2034 
L 1109 0 
L 503 0 
z
M 1109 2559 
L 2413 2559 
Q 2828 2559 3062 2645 
Q 3297 2731 3419 2920 
Q 3541 3109 3541 3331 
Q 3541 3656 3305 3865 
Q 3069 4075 2559 4075 
L 1109 4075 
L 1109 2559 
z
" transform="scale(0.015625)"/>
       <path id="ArialMT-6d" d="M 422 0 
L 422 3319 
L 925 3319 
L 925 2853 
Q 1081 3097 1340 3245 
Q 1600 3394 1931 3394 
Q 2300 3394 2536 3241 
Q 2772 3088 2869 2813 
Q 3263 3394 3894 3394 
Q 4388 3394 4653 3120 
Q 4919 2847 4919 2278 
L 4919 0 
L 4359 0 
L 4359 2091 
Q 4359 2428 4304 2576 
Q 4250 2725 4106 2815 
Q 3963 2906 3769 2906 
Q 3419 2906 3187 2673 
Q 2956 2441 2956 1928 
L 2956 0 
L 2394 0 
L 2394 2156 
Q 2394 2531 2256 2718 
Q 2119 2906 1806 2906 
Q 1569 2906 1367 2781 
Q 1166 2656 1075 2415 
Q 984 2175 984 1722 
L 984 0 
L 422 0 
z
" transform="scale(0.015625)"/>
       <path id="ArialMT-20" transform="scale(0.015625)"/>
       <path id="ArialMT-5b" d="M 434 -1272 
L 434 4581 
L 1675 4581 
L 1675 4116 
L 997 4116 
L 997 -806 
L 1675 -806 
L 1675 -1272 
L 434 -1272 
z
" transform="scale(0.015625)"/>
       <path id="ArialMT-5d" d="M 1363 -1272 
L 122 -1272 
L 122 -806 
L 800 -806 
L 800 4116 
L 122 4116 
L 122 4581 
L 1363 4581 
L 1363 -1272 
z
" transform="scale(0.015625)"/>
      </defs>
      <use xlink:href="#ArialMT-52"/>
      <use xlink:href="#ArialMT-75" transform="translate(72.216797 0)"/>
      <use xlink:href="#ArialMT-6e" transform="translate(127.832031 0)"/>
      <use xlink:href="#ArialMT-74" transform="translate(183.447266 0)"/>
      <use xlink:href="#ArialMT-69" transform="translate(211.230469 0)"/>
      <use xlink:href="#ArialMT-6d" transform="translate(233.447266 0)"/>
      <use xlink:href="#ArialMT-65" transform="translate(316.748047 0)"/>
      <use xlink:href="#ArialMT-20" transform="translate(372.363281 0)"/>
      <use xlink:href="#ArialMT-5b" transform="translate(400.146484 0)"/>
      <use xlink:href="#ArialMT-6e" transform="translate(427.929688 0)"/>
      <use xlink:href="#ArialMT-73" transform="translate(483.544922 0)"/>
      <use xlink:href="#ArialMT-5d" transform="translate(533.544922 0)"/>
     </g>
    </g>
   </g>
   <g id="FillBetweenPolyCollection_1">
    <defs>
     <path id="m5e47c083db" d="M 115.363636 -199.779374 
L 115.363636 -193.832063 
L 178.772727 -217.657316 
L 242.181818 -218.133994 
L 305.590909 -244.047559 
L 369 -244.466471 
L 432.409091 -244.845075 
L 495.818182 -288.056382 
L 559.227273 -310.334175 
L 622.636364 -363.834697 
L 622.636364 -365.04 
L 622.636364 -365.04 
L 559.227273 -318.970051 
L 495.818182 -298.602785 
L 432.409091 -250.758617 
L 369 -254.623847 
L 305.590909 -248.070497 
L 242.181818 -221.732868 
L 178.772727 -221.057595 
L 115.363636 -199.779374 
z
" style="stroke: #e41a1c; stroke-opacity: 0.2"/>
    </defs>
    <g clip-path="url(#p6cff9e2ffa)">
     <use xlink:href="#m5e47c083db" x="0" y="432" style="fill: #e41a1c; fill-opacity: 0.2; stroke: #e41a1c; stroke-opacity: 0.2"/>
    </g>
   </g>
   <g id="FillBetweenPolyCollection_2">
    <defs>
     <path id="mfdd11b4615" d="M 115.363636 -115.28642 
L 115.363636 -104.253484 
L 178.772727 -112.23093 
L 242.181818 -116.258211 
L 305.590909 -122.743281 
L 369 -122.79457 
L 432.409091 -126.92453 
L 495.818182 -149.777056 
L 559.227273 -157.157824 
L 622.636364 -166.803445 
L 622.636364 -177.198361 
L 622.636364 -177.198361 
L 559.227273 -166.533942 
L 495.818182 -159.918674 
L 432.409091 -138.838881 
L 369 -135.02447 
L 305.590909 -130.902764 
L 242.181818 -126.702985 
L 178.772727 -124.652435 
L 115.363636 -115.28642 
z
" style="stroke: #4daf4a; stroke-opacity: 0.2"/>
    </defs>
    <g clip-path="url(#p6cff9e2ffa)">
     <use xlink:href="#mfdd11b4615" x="0" y="432" style="fill: #4daf4a; fill-opacity: 0.2; stroke: #4daf4a; stroke-opacity: 0.2"/>
    </g>
   </g>
   <g id="FillBetweenPolyCollection_3">
    <defs>
     <path id="m433a6a6608" d="M 115.363636 -115.641161 
L 115.363636 -101.221977 
L 178.772727 -112.206259 
L 242.181818 -118.259198 
L 305.590909 -118.952699 
L 369 -119.243609 
L 432.409091 -125.755147 
L 495.818182 -146.104805 
L 559.227273 -157.252066 
L 622.636364 -163.491054 
L 622.636364 -175.772204 
L 622.636364 -175.772204 
L 559.227273 -161.768247 
L 495.818182 -154.992227 
L 432.409091 -132.283876 
L 369 -133.392218 
L 305.590909 -126.363135 
L 242.181818 -126.142344 
L 178.772727 -117.326452 
L 115.363636 -115.641161 
z
" style="stroke: #a65628; stroke-opacity: 0.2"/>
    </defs>
    <g clip-path="url(#p6cff9e2ffa)">
     <use xlink:href="#m433a6a6608" x="0" y="432" style="fill: #a65628; fill-opacity: 0.2; stroke: #a65628; stroke-opacity: 0.2"/>
    </g>
   </g>
   <g id="FillBetweenPolyCollection_4">
    <defs>
     <path id="mfd42ccf62d" d="M 115.363636 -161.385865 
L 115.363636 -157.721945 
L 178.772727 -175.399453 
L 242.181818 -171.603487 
L 305.590909 -171.116769 
L 369 -171.318015 
L 432.409091 -183.623371 
L 495.818182 -218.383801 
L 559.227273 -230.479139 
L 622.636364 -240.051848 
L 622.636364 -241.917578 
L 622.636364 -241.917578 
L 559.227273 -233.287699 
L 495.818182 -223.152076 
L 432.409091 -188.979927 
L 369 -179.574298 
L 305.590909 -175.594418 
L 242.181818 -179.533217 
L 178.772727 -180.779616 
L 115.363636 -161.385865 
z
" style="stroke: #999999; stroke-opacity: 0.2"/>
    </defs>
    <g clip-path="url(#p6cff9e2ffa)">
     <use xlink:href="#mfd42ccf62d" x="0" y="432" style="fill: #999999; fill-opacity: 0.2; stroke: #999999; stroke-opacity: 0.2"/>
    </g>
   </g>
   <g id="FillBetweenPolyCollection_5">
    <defs>
     <path id="m24b8ff92db" d="M 115.363636 -202.168063 
L 115.363636 -195.332818 
L 178.772727 -223.438779 
L 242.181818 -227.015983 
L 305.590909 -244.338123 
L 369 -245.211594 
L 432.409091 -253.687056 
L 495.818182 -305.166674 
L 559.227273 -328.166528 
L 622.636364 -358.149273 
L 622.636364 -359.57797 
L 622.636364 -359.57797 
L 559.227273 -329.182386 
L 495.818182 -306.446518 
L 432.409091 -255.42341 
L 369 -247.119839 
L 305.590909 -246.456011 
L 242.181818 -229.222298 
L 178.772727 -226.624223 
L 115.363636 -202.168063 
z
" style="stroke: #377eb8; stroke-opacity: 0.2"/>
    </defs>
    <g clip-path="url(#p6cff9e2ffa)">
     <use xlink:href="#m24b8ff92db" x="0" y="432" style="fill: #377eb8; fill-opacity: 0.2; stroke: #377eb8; stroke-opacity: 0.2"/>
    </g>
   </g>
   <g id="FillBetweenPolyCollection_6">
    <defs>
     <path id="m212e794784" d="M 115.363636 -73.766045 
L 115.363636 -62.64 
L 178.772727 -66.368896 
L 242.181818 -66.490258 
L 305.590909 -74.145187 
L 369 -70.735082 
L 432.409091 -75.514536 
L 495.818182 -85.978907 
L 559.227273 -95.457631 
L 622.636364 -98.252486 
L 622.636364 -108.41471 
L 622.636364 -108.41471 
L 559.227273 -99.164022 
L 495.818182 -101.422244 
L 432.409091 -81.604781 
L 369 -83.18162 
L 305.590909 -82.819342 
L 242.181818 -87.10321 
L 178.772727 -77.982896 
L 115.363636 -73.766045 
z
" style="stroke: #ff7f00; stroke-opacity: 0.2"/>
    </defs>
    <g clip-path="url(#p6cff9e2ffa)">
     <use xlink:href="#m212e794784" x="0" y="432" style="fill: #ff7f00; fill-opacity: 0.2; stroke: #ff7f00; stroke-opacity: 0.2"/>
    </g>
   </g>
   <g id="line2d_18">
    <path d="M 115.363636 234.969101 
L 178.772727 212.568747 
L 242.181818 211.983913 
L 305.590909 185.837725 
L 369 181.802765 
L 432.409091 183.975513 
L 495.818182 137.968036 
L 559.227273 116.875092 
L 622.636364 67.553369 
" clip-path="url(#p6cff9e2ffa)" style="fill: none; stroke: #e41a1c; stroke-width: 1.5; stroke-linecap: round"/>
    <defs>
     <path id="m2456b31305" d="M 0 3 
C 0.795609 3 1.55874 2.683901 2.12132 2.12132 
C 2.683901 1.55874 3 0.795609 3 0 
C 3 -0.795609 2.683901 -1.55874 2.12132 -2.12132 
C 1.55874 -2.683901 0.795609 -3 0 -3 
C -0.795609 -3 -1.55874 -2.683901 -2.12132 -2.12132 
C -2.683901 -1.55874 -3 -0.795609 -3 0 
C -3 0.795609 -2.683901 1.55874 -2.12132 2.12132 
C -1.55874 2.683901 -0.795609 3 0 3 
z
" style="stroke: #e41a1c"/>
    </defs>
    <g clip-path="url(#p6cff9e2ffa)">
     <use xlink:href="#m2456b31305" x="115.363636" y="234.969101" style="fill: #e41a1c; stroke: #e41a1c"/>
     <use xlink:href="#m2456b31305" x="178.772727" y="212.568747" style="fill: #e41a1c; stroke: #e41a1c"/>
     <use xlink:href="#m2456b31305" x="242.181818" y="211.983913" style="fill: #e41a1c; stroke: #e41a1c"/>
     <use xlink:href="#m2456b31305" x="305.590909" y="185.837725" style="fill: #e41a1c; stroke: #e41a1c"/>
     <use xlink:href="#m2456b31305" x="369" y="181.802765" style="fill: #e41a1c; stroke: #e41a1c"/>
     <use xlink:href="#m2456b31305" x="432.409091" y="183.975513" style="fill: #e41a1c; stroke: #e41a1c"/>
     <use xlink:href="#m2456b31305" x="495.818182" y="137.968036" style="fill: #e41a1c; stroke: #e41a1c"/>
     <use xlink:href="#m2456b31305" x="559.227273" y="116.875092" style="fill: #e41a1c; stroke: #e41a1c"/>
     <use xlink:href="#m2456b31305" x="622.636364" y="67.553369" style="fill: #e41a1c; stroke: #e41a1c"/>
    </g>
   </g>
   <g id="line2d_19">
    <path d="M 115.363636 321.462223 
L 178.772727 312.588393 
L 242.181818 309.830337 
L 305.590909 304.754545 
L 369 302.149781 
L 432.409091 298.224796 
L 495.818182 276.502059 
L 559.227273 269.597589 
L 622.636364 259.316519 
" clip-path="url(#p6cff9e2ffa)" style="fill: none; stroke: #4daf4a; stroke-width: 1.5; stroke-linecap: round"/>
    <defs>
     <path id="m185a8d166d" d="M 0 3 
C 0.795609 3 1.55874 2.683901 2.12132 2.12132 
C 2.683901 1.55874 3 0.795609 3 0 
C 3 -0.795609 2.683901 -1.55874 2.12132 -2.12132 
C 1.55874 -2.683901 0.795609 -3 0 -3 
C -0.795609 -3 -1.55874 -2.683901 -2.12132 -2.12132 
C -2.683901 -1.55874 -3 -0.795609 -3 0 
C -3 0.795609 -2.683901 1.55874 -2.12132 2.12132 
C -1.55874 2.683901 -0.795609 3 0 3 
z
" style="stroke: #4daf4a"/>
    </defs>
    <g clip-path="url(#p6cff9e2ffa)">
     <use xlink:href="#m185a8d166d" x="115.363636" y="321.462223" style="fill: #4daf4a; stroke: #4daf4a"/>
     <use xlink:href="#m185a8d166d" x="178.772727" y="312.588393" style="fill: #4daf4a; stroke: #4daf4a"/>
     <use xlink:href="#m185a8d166d" x="242.181818" y="309.830337" style="fill: #4daf4a; stroke: #4daf4a"/>
     <use xlink:href="#m185a8d166d" x="305.590909" y="304.754545" style="fill: #4daf4a; stroke: #4daf4a"/>
     <use xlink:href="#m185a8d166d" x="369" y="302.149781" style="fill: #4daf4a; stroke: #4daf4a"/>
     <use xlink:href="#m185a8d166d" x="432.409091" y="298.224796" style="fill: #4daf4a; stroke: #4daf4a"/>
     <use xlink:href="#m185a8d166d" x="495.818182" y="276.502059" style="fill: #4daf4a; stroke: #4daf4a"/>
     <use xlink:href="#m185a8d166d" x="559.227273" y="269.597589" style="fill: #4daf4a; stroke: #4daf4a"/>
     <use xlink:href="#m185a8d166d" x="622.636364" y="259.316519" style="fill: #4daf4a; stroke: #4daf4a"/>
    </g>
   </g>
   <g id="line2d_20">
    <path d="M 115.363636 322.268741 
L 178.772727 317.066577 
L 242.181818 309.404738 
L 305.590909 308.993214 
L 369 304.429711 
L 432.409091 302.70934 
L 495.818182 280.950981 
L 559.227273 272.359786 
L 622.636364 261.419896 
" clip-path="url(#p6cff9e2ffa)" style="fill: none; stroke: #a65628; stroke-width: 1.5; stroke-linecap: round"/>
    <defs>
     <path id="mf0190d036c" d="M 0 3 
C 0.795609 3 1.55874 2.683901 2.12132 2.12132 
C 2.683901 1.55874 3 0.795609 3 0 
C 3 -0.795609 2.683901 -1.55874 2.12132 -2.12132 
C 1.55874 -2.683901 0.795609 -3 0 -3 
C -0.795609 -3 -1.55874 -2.683901 -2.12132 -2.12132 
C -2.683901 -1.55874 -3 -0.795609 -3 0 
C -3 0.795609 -2.683901 1.55874 -2.12132 2.12132 
C -1.55874 2.683901 -0.795609 3 0 3 
z
" style="stroke: #a65628"/>
    </defs>
    <g clip-path="url(#p6cff9e2ffa)">
     <use xlink:href="#mf0190d036c" x="115.363636" y="322.268741" style="fill: #a65628; stroke: #a65628"/>
     <use xlink:href="#mf0190d036c" x="178.772727" y="317.066577" style="fill: #a65628; stroke: #a65628"/>
     <use xlink:href="#mf0190d036c" x="242.181818" y="309.404738" style="fill: #a65628; stroke: #a65628"/>
     <use xlink:href="#mf0190d036c" x="305.590909" y="308.993214" style="fill: #a65628; stroke: #a65628"/>
     <use xlink:href="#mf0190d036c" x="369" y="304.429711" style="fill: #a65628; stroke: #a65628"/>
     <use xlink:href="#mf0190d036c" x="432.409091" y="302.70934" style="fill: #a65628; stroke: #a65628"/>
     <use xlink:href="#mf0190d036c" x="495.818182" y="280.950981" style="fill: #a65628; stroke: #a65628"/>
     <use xlink:href="#mf0190d036c" x="559.227273" y="272.359786" style="fill: #a65628; stroke: #a65628"/>
     <use xlink:href="#mf0190d036c" x="622.636364" y="261.419896" style="fill: #a65628; stroke: #a65628"/>
    </g>
   </g>
   <g id="line2d_21">
    <path d="M 115.363636 272.360428 
L 178.772727 253.726056 
L 242.181818 256.032513 
L 305.590909 258.516554 
L 369 256.121403 
L 432.409091 245.515551 
L 495.818182 211.087115 
L 559.227273 200.066213 
L 622.636364 190.993049 
" clip-path="url(#p6cff9e2ffa)" style="fill: none; stroke: #999999; stroke-width: 1.5; stroke-linecap: round"/>
    <defs>
     <path id="m17d00851d9" d="M 0 3 
C 0.795609 3 1.55874 2.683901 2.12132 2.12132 
C 2.683901 1.55874 3 0.795609 3 0 
C 3 -0.795609 2.683901 -1.55874 2.12132 -2.12132 
C 1.55874 -2.683901 0.795609 -3 0 -3 
C -0.795609 -3 -1.55874 -2.683901 -2.12132 -2.12132 
C -2.683901 -1.55874 -3 -0.795609 -3 0 
C -3 0.795609 -2.683901 1.55874 -2.12132 2.12132 
C -1.55874 2.683901 -0.795609 3 0 3 
z
" style="stroke: #999999"/>
    </defs>
    <g clip-path="url(#p6cff9e2ffa)">
     <use xlink:href="#m17d00851d9" x="115.363636" y="272.360428" style="fill: #999999; stroke: #999999"/>
     <use xlink:href="#m17d00851d9" x="178.772727" y="253.726056" style="fill: #999999; stroke: #999999"/>
     <use xlink:href="#m17d00851d9" x="242.181818" y="256.032513" style="fill: #999999; stroke: #999999"/>
     <use xlink:href="#m17d00851d9" x="305.590909" y="258.516554" style="fill: #999999; stroke: #999999"/>
     <use xlink:href="#m17d00851d9" x="369" y="256.121403" style="fill: #999999; stroke: #999999"/>
     <use xlink:href="#m17d00851d9" x="432.409091" y="245.515551" style="fill: #999999; stroke: #999999"/>
     <use xlink:href="#m17d00851d9" x="495.818182" y="211.087115" style="fill: #999999; stroke: #999999"/>
     <use xlink:href="#m17d00851d9" x="559.227273" y="200.066213" style="fill: #999999; stroke: #999999"/>
     <use xlink:href="#m17d00851d9" x="622.636364" y="190.993049" style="fill: #999999; stroke: #999999"/>
    </g>
   </g>
   <g id="line2d_22">
    <path d="M 115.363636 232.952484 
L 178.772727 206.903723 
L 242.181818 203.849767 
L 305.590909 186.574282 
L 369 185.811021 
L 432.409091 177.425506 
L 495.818182 126.182938 
L 559.227273 103.318948 
L 622.636364 73.123337 
" clip-path="url(#p6cff9e2ffa)" style="fill: none; stroke: #377eb8; stroke-width: 1.5; stroke-linecap: round"/>
    <defs>
     <path id="m063976039f" d="M 0 3 
C 0.795609 3 1.55874 2.683901 2.12132 2.12132 
C 2.683901 1.55874 3 0.795609 3 0 
C 3 -0.795609 2.683901 -1.55874 2.12132 -2.12132 
C 1.55874 -2.683901 0.795609 -3 0 -3 
C -0.795609 -3 -1.55874 -2.683901 -2.12132 -2.12132 
C -2.683901 -1.55874 -3 -0.795609 -3 0 
C -3 0.795609 -2.683901 1.55874 -2.12132 2.12132 
C -1.55874 2.683901 -0.795609 3 0 3 
z
" style="stroke: #377eb8"/>
    </defs>
    <g clip-path="url(#p6cff9e2ffa)">
     <use xlink:href="#m063976039f" x="115.363636" y="232.952484" style="fill: #377eb8; stroke: #377eb8"/>
     <use xlink:href="#m063976039f" x="178.772727" y="206.903723" style="fill: #377eb8; stroke: #377eb8"/>
     <use xlink:href="#m063976039f" x="242.181818" y="203.849767" style="fill: #377eb8; stroke: #377eb8"/>
     <use xlink:href="#m063976039f" x="305.590909" y="186.574282" style="fill: #377eb8; stroke: #377eb8"/>
     <use xlink:href="#m063976039f" x="369" y="185.811021" style="fill: #377eb8; stroke: #377eb8"/>
     <use xlink:href="#m063976039f" x="432.409091" y="177.425506" style="fill: #377eb8; stroke: #377eb8"/>
     <use xlink:href="#m063976039f" x="495.818182" y="126.182938" style="fill: #377eb8; stroke: #377eb8"/>
     <use xlink:href="#m063976039f" x="559.227273" y="103.318948" style="fill: #377eb8; stroke: #377eb8"/>
     <use xlink:href="#m063976039f" x="622.636364" y="73.123337" style="fill: #377eb8; stroke: #377eb8"/>
    </g>
   </g>
   <g id="line2d_23">
    <path d="M 115.363636 363.016308 
L 178.772727 358.974453 
L 242.181818 352.604926 
L 305.590909 353.040774 
L 369 354.067875 
L 432.409091 353.204251 
L 495.818182 336.813258 
L 559.227273 334.601512 
L 622.636364 328.01371 
" clip-path="url(#p6cff9e2ffa)" style="fill: none; stroke: #ff7f00; stroke-width: 1.5; stroke-linecap: round"/>
    <defs>
     <path id="md000d11a64" d="M 0 3 
C 0.795609 3 1.55874 2.683901 2.12132 2.12132 
C 2.683901 1.55874 3 0.795609 3 0 
C 3 -0.795609 2.683901 -1.55874 2.12132 -2.12132 
C 1.55874 -2.683901 0.795609 -3 0 -3 
C -0.795609 -3 -1.55874 -2.683901 -2.12132 -2.12132 
C -2.683901 -1.55874 -3 -0.795609 -3 0 
C -3 0.795609 -2.683901 1.55874 -2.12132 2.12132 
C -1.55874 2.683901 -0.795609 3 0 3 
z
" style="stroke: #ff7f00"/>
    </defs>
    <g clip-path="url(#p6cff9e2ffa)">
     <use xlink:href="#md000d11a64" x="115.363636" y="363.016308" style="fill: #ff7f00; stroke: #ff7f00"/>
     <use xlink:href="#md000d11a64" x="178.772727" y="358.974453" style="fill: #ff7f00; stroke: #ff7f00"/>
     <use xlink:href="#md000d11a64" x="242.181818" y="352.604926" style="fill: #ff7f00; stroke: #ff7f00"/>
     <use xlink:href="#md000d11a64" x="305.590909" y="353.040774" style="fill: #ff7f00; stroke: #ff7f00"/>
     <use xlink:href="#md000d11a64" x="369" y="354.067875" style="fill: #ff7f00; stroke: #ff7f00"/>
     <use xlink:href="#md000d11a64" x="432.409091" y="353.204251" style="fill: #ff7f00; stroke: #ff7f00"/>
     <use xlink:href="#md000d11a64" x="495.818182" y="336.813258" style="fill: #ff7f00; stroke: #ff7f00"/>
     <use xlink:href="#md000d11a64" x="559.227273" y="334.601512" style="fill: #ff7f00; stroke: #ff7f00"/>
     <use xlink:href="#md000d11a64" x="622.636364" y="328.01371" style="fill: #ff7f00; stroke: #ff7f00"/>
    </g>
   </g>
   <g id="patch_3">
    <path d="M 90 384.48 
L 90 51.84 
" style="fill: none; stroke: #cccccc; stroke-width: 1.25; stroke-linejoin: miter; stroke-linecap: square"/>
   </g>
   <g id="patch_4">
    <path d="M 648 384.48 
L 648 51.84 
" style="fill: none; stroke: #cccccc; stroke-width: 1.25; stroke-linejoin: miter; stroke-linecap: square"/>
   </g>
   <g id="patch_5">
    <path d="M 90 384.48 
L 648 384.48 
" style="fill: none; stroke: #cccccc; stroke-width: 1.25; stroke-linejoin: miter; stroke-linecap: square"/>
   </g>
   <g id="patch_6">
    <path d="M 90 51.84 
L 648 51.84 
" style="fill: none; stroke: #cccccc; stroke-width: 1.25; stroke-linejoin: miter; stroke-linecap: square"/>
   </g>
   <g id="text_20">
    <!-- Algorithm Runtime [ns] per Instance with Standard Deviation (Log scale) -->
    <g style="fill: #262626" transform="translate(177.252188 45.84) scale(0.12 -0.12)">
     <defs>
      <path id="ArialMT-41" d="M -9 0 
L 1750 4581 
L 2403 4581 
L 4278 0 
L 3588 0 
L 3053 1388 
L 1138 1388 
L 634 0 
L -9 0 
z
M 1313 1881 
L 2866 1881 
L 2388 3150 
Q 2169 3728 2063 4100 
Q 1975 3659 1816 3225 
L 1313 1881 
z
" transform="scale(0.015625)"/>
      <path id="ArialMT-67" d="M 319 -275 
L 866 -356 
Q 900 -609 1056 -725 
Q 1266 -881 1628 -881 
Q 2019 -881 2231 -725 
Q 2444 -569 2519 -288 
Q 2563 -116 2559 434 
Q 2191 0 1641 0 
Q 956 0 581 494 
Q 206 988 206 1678 
Q 206 2153 378 2554 
Q 550 2956 876 3175 
Q 1203 3394 1644 3394 
Q 2231 3394 2613 2919 
L 2613 3319 
L 3131 3319 
L 3131 450 
Q 3131 -325 2973 -648 
Q 2816 -972 2473 -1159 
Q 2131 -1347 1631 -1347 
Q 1038 -1347 672 -1080 
Q 306 -813 319 -275 
z
M 784 1719 
Q 784 1066 1043 766 
Q 1303 466 1694 466 
Q 2081 466 2343 764 
Q 2606 1063 2606 1700 
Q 2606 2309 2336 2618 
Q 2066 2928 1684 2928 
Q 1309 2928 1046 2623 
Q 784 2319 784 1719 
z
" transform="scale(0.015625)"/>
      <path id="ArialMT-6f" d="M 213 1659 
Q 213 2581 725 3025 
Q 1153 3394 1769 3394 
Q 2453 3394 2887 2945 
Q 3322 2497 3322 1706 
Q 3322 1066 3130 698 
Q 2938 331 2570 128 
Q 2203 -75 1769 -75 
Q 1072 -75 642 372 
Q 213 819 213 1659 
z
M 791 1659 
Q 791 1022 1069 705 
Q 1347 388 1769 388 
Q 2188 388 2466 706 
Q 2744 1025 2744 1678 
Q 2744 2294 2464 2611 
Q 2184 2928 1769 2928 
Q 1347 2928 1069 2612 
Q 791 2297 791 1659 
z
" transform="scale(0.015625)"/>
      <path id="ArialMT-53" d="M 288 1472 
L 859 1522 
Q 900 1178 1048 958 
Q 1197 738 1509 602 
Q 1822 466 2213 466 
Q 2559 466 2825 569 
Q 3091 672 3220 851 
Q 3350 1031 3350 1244 
Q 3350 1459 3225 1620 
Q 3100 1781 2813 1891 
Q 2628 1963 1997 2114 
Q 1366 2266 1113 2400 
Q 784 2572 623 2826 
Q 463 3081 463 3397 
Q 463 3744 659 4045 
Q 856 4347 1234 4503 
Q 1613 4659 2075 4659 
Q 2584 4659 2973 4495 
Q 3363 4331 3572 4012 
Q 3781 3694 3797 3291 
L 3216 3247 
Q 3169 3681 2898 3903 
Q 2628 4125 2100 4125 
Q 1550 4125 1298 3923 
Q 1047 3722 1047 3438 
Q 1047 3191 1225 3031 
Q 1400 2872 2139 2705 
Q 2878 2538 3153 2413 
Q 3553 2228 3743 1945 
Q 3934 1663 3934 1294 
Q 3934 928 3725 604 
Q 3516 281 3123 101 
Q 2731 -78 2241 -78 
Q 1619 -78 1198 103 
Q 778 284 539 648 
Q 300 1013 288 1472 
z
" transform="scale(0.015625)"/>
      <path id="ArialMT-44" d="M 494 0 
L 494 4581 
L 2072 4581 
Q 2606 4581 2888 4516 
Q 3281 4425 3559 4188 
Q 3922 3881 4101 3404 
Q 4281 2928 4281 2316 
Q 4281 1794 4159 1391 
Q 4038 988 3847 723 
Q 3656 459 3429 307 
Q 3203 156 2883 78 
Q 2563 0 2147 0 
L 494 0 
z
M 1100 541 
L 2078 541 
Q 2531 541 2789 625 
Q 3047 709 3200 863 
Q 3416 1078 3536 1442 
Q 3656 1806 3656 2325 
Q 3656 3044 3420 3430 
Q 3184 3816 2847 3947 
Q 2603 4041 2063 4041 
L 1100 4041 
L 1100 541 
z
" transform="scale(0.015625)"/>
      <path id="ArialMT-76" d="M 1344 0 
L 81 3319 
L 675 3319 
L 1388 1331 
Q 1503 1009 1600 663 
Q 1675 925 1809 1294 
L 2547 3319 
L 3125 3319 
L 1869 0 
L 1344 0 
z
" transform="scale(0.015625)"/>
      <path id="ArialMT-28" d="M 1497 -1347 
Q 1031 -759 709 28 
Q 388 816 388 1659 
Q 388 2403 628 3084 
Q 909 3875 1497 4659 
L 1900 4659 
Q 1522 4009 1400 3731 
Q 1209 3300 1100 2831 
Q 966 2247 966 1656 
Q 966 153 1900 -1347 
L 1497 -1347 
z
" transform="scale(0.015625)"/>
      <path id="ArialMT-4c" d="M 469 0 
L 469 4581 
L 1075 4581 
L 1075 541 
L 3331 541 
L 3331 0 
L 469 0 
z
" transform="scale(0.015625)"/>
      <path id="ArialMT-29" d="M 791 -1347 
L 388 -1347 
Q 1322 153 1322 1656 
Q 1322 2244 1188 2822 
Q 1081 3291 891 3722 
Q 769 4003 388 4659 
L 791 4659 
Q 1378 3875 1659 3084 
Q 1900 2403 1900 1659 
Q 1900 816 1576 28 
Q 1253 -759 791 -1347 
z
" transform="scale(0.015625)"/>
     </defs>
     <use xlink:href="#ArialMT-41"/>
     <use xlink:href="#ArialMT-6c" transform="translate(66.699219 0)"/>
     <use xlink:href="#ArialMT-67" transform="translate(88.916016 0)"/>
     <use xlink:href="#ArialMT-6f" transform="translate(144.53125 0)"/>
     <use xlink:href="#ArialMT-72" transform="translate(200.146484 0)"/>
     <use xlink:href="#ArialMT-69" transform="translate(233.447266 0)"/>
     <use xlink:href="#ArialMT-74" transform="translate(255.664062 0)"/>
     <use xlink:href="#ArialMT-68" transform="translate(283.447266 0)"/>
     <use xlink:href="#ArialMT-6d" transform="translate(339.0625 0)"/>
     <use xlink:href="#ArialMT-20" transform="translate(422.363281 0)"/>
     <use xlink:href="#ArialMT-52" transform="translate(450.146484 0)"/>
     <use xlink:href="#ArialMT-75" transform="translate(522.363281 0)"/>
     <use xlink:href="#ArialMT-6e" transform="translate(577.978516 0)"/>
     <use xlink:href="#ArialMT-74" transform="translate(633.59375 0)"/>
     <use xlink:href="#ArialMT-69" transform="translate(661.376953 0)"/>
     <use xlink:href="#ArialMT-6d" transform="translate(683.59375 0)"/>
     <use xlink:href="#ArialMT-65" transform="translate(766.894531 0)"/>
     <use xlink:href="#ArialMT-20" transform="translate(822.509766 0)"/>
     <use xlink:href="#ArialMT-5b" transform="translate(850.292969 0)"/>
     <use xlink:href="#ArialMT-6e" transform="translate(878.076172 0)"/>
     <use xlink:href="#ArialMT-73" transform="translate(933.691406 0)"/>
     <use xlink:href="#ArialMT-5d" transform="translate(983.691406 0)"/>
     <use xlink:href="#ArialMT-20" transform="translate(1011.474609 0)"/>
     <use xlink:href="#ArialMT-70" transform="translate(1039.257812 0)"/>
     <use xlink:href="#ArialMT-65" transform="translate(1094.873047 0)"/>
     <use xlink:href="#ArialMT-72" transform="translate(1150.488281 0)"/>
     <use xlink:href="#ArialMT-20" transform="translate(1183.789062 0)"/>
     <use xlink:href="#ArialMT-49" transform="translate(1211.572266 0)"/>
     <use xlink:href="#ArialMT-6e" transform="translate(1239.355469 0)"/>
     <use xlink:href="#ArialMT-73" transform="translate(1294.970703 0)"/>
     <use xlink:href="#ArialMT-74" transform="translate(1344.970703 0)"/>
     <use xlink:href="#ArialMT-61" transform="translate(1372.753906 0)"/>
     <use xlink:href="#ArialMT-6e" transform="translate(1428.369141 0)"/>
     <use xlink:href="#ArialMT-63" transform="translate(1483.984375 0)"/>
     <use xlink:href="#ArialMT-65" transform="translate(1533.984375 0)"/>
     <use xlink:href="#ArialMT-20" transform="translate(1589.599609 0)"/>
     <use xlink:href="#ArialMT-77" transform="translate(1617.382812 0)"/>
     <use xlink:href="#ArialMT-69" transform="translate(1689.599609 0)"/>
     <use xlink:href="#ArialMT-74" transform="translate(1711.816406 0)"/>
     <use xlink:href="#ArialMT-68" transform="translate(1739.599609 0)"/>
     <use xlink:href="#ArialMT-20" transform="translate(1795.214844 0)"/>
     <use xlink:href="#ArialMT-53" transform="translate(1822.998047 0)"/>
     <use xlink:href="#ArialMT-74" transform="translate(1889.697266 0)"/>
     <use xlink:href="#ArialMT-61" transform="translate(1917.480469 0)"/>
     <use xlink:href="#ArialMT-6e" transform="translate(1973.095703 0)"/>
     <use xlink:href="#ArialMT-64" transform="translate(2028.710938 0)"/>
     <use xlink:href="#ArialMT-61" transform="translate(2084.326172 0)"/>
     <use xlink:href="#ArialMT-72" transform="translate(2139.941406 0)"/>
     <use xlink:href="#ArialMT-64" transform="translate(2173.242188 0)"/>
     <use xlink:href="#ArialMT-20" transform="translate(2228.857422 0)"/>
     <use xlink:href="#ArialMT-44" transform="translate(2256.640625 0)"/>
     <use xlink:href="#ArialMT-65" transform="translate(2328.857422 0)"/>
     <use xlink:href="#ArialMT-76" transform="translate(2384.472656 0)"/>
     <use xlink:href="#ArialMT-69" transform="translate(2434.472656 0)"/>
     <use xlink:href="#ArialMT-61" transform="translate(2456.689453 0)"/>
     <use xlink:href="#ArialMT-74" transform="translate(2512.304688 0)"/>
     <use xlink:href="#ArialMT-69" transform="translate(2540.087891 0)"/>
     <use xlink:href="#ArialMT-6f" transform="translate(2562.304688 0)"/>
     <use xlink:href="#ArialMT-6e" transform="translate(2617.919922 0)"/>
     <use xlink:href="#ArialMT-20" transform="translate(2673.535156 0)"/>
     <use xlink:href="#ArialMT-28" transform="translate(2701.318359 0)"/>
     <use xlink:href="#ArialMT-4c" transform="translate(2734.619141 0)"/>
     <use xlink:href="#ArialMT-6f" transform="translate(2790.234375 0)"/>
     <use xlink:href="#ArialMT-67" transform="translate(2845.849609 0)"/>
     <use xlink:href="#ArialMT-20" transform="translate(2901.464844 0)"/>
     <use xlink:href="#ArialMT-73" transform="translate(2929.248047 0)"/>
     <use xlink:href="#ArialMT-63" transform="translate(2979.248047 0)"/>
     <use xlink:href="#ArialMT-61" transform="translate(3029.248047 0)"/>
     <use xlink:href="#ArialMT-6c" transform="translate(3084.863281 0)"/>
     <use xlink:href="#ArialMT-65" transform="translate(3107.080078 0)"/>
     <use xlink:href="#ArialMT-29" transform="translate(3162.695312 0)"/>
    </g>
   </g>
   <g id="legend_1">
    <g id="patch_7">
     <path d="M 97.7 155.576875 
L 273.49375 155.576875 
Q 275.69375 155.576875 275.69375 153.376875 
L 275.69375 59.54 
Q 275.69375 57.34 273.49375 57.34 
L 97.7 57.34 
Q 95.5 57.34 95.5 59.54 
L 95.5 153.376875 
Q 95.5 155.576875 97.7 155.576875 
z
" style="fill: #ffffff; opacity: 0.8; stroke: #cccccc; stroke-linejoin: miter"/>
    </g>
    <g id="line2d_24">
     <path d="M 99.9 65.897656 
L 110.9 65.897656 
L 121.9 65.897656 
" style="fill: none; stroke: #e41a1c; stroke-width: 1.5; stroke-linecap: round"/>
     <g>
      <use xlink:href="#m2456b31305" x="110.9" y="65.897656" style="fill: #e41a1c; stroke: #e41a1c"/>
     </g>
    </g>
    <g id="text_21">
     <!-- greedyLS (Mean) -->
     <g style="fill: #262626" transform="translate(130.7 69.747656) scale(0.11 -0.11)">
      <defs>
       <path id="ArialMT-79" d="M 397 -1278 
L 334 -750 
Q 519 -800 656 -800 
Q 844 -800 956 -737 
Q 1069 -675 1141 -563 
Q 1194 -478 1313 -144 
Q 1328 -97 1363 -6 
L 103 3319 
L 709 3319 
L 1400 1397 
Q 1534 1031 1641 628 
Q 1738 1016 1872 1384 
L 2581 3319 
L 3144 3319 
L 1881 -56 
Q 1678 -603 1566 -809 
Q 1416 -1088 1222 -1217 
Q 1028 -1347 759 -1347 
Q 597 -1347 397 -1278 
z
" transform="scale(0.015625)"/>
       <path id="ArialMT-4d" d="M 475 0 
L 475 4581 
L 1388 4581 
L 2472 1338 
Q 2622 884 2691 659 
Q 2769 909 2934 1394 
L 4031 4581 
L 4847 4581 
L 4847 0 
L 4263 0 
L 4263 3834 
L 2931 0 
L 2384 0 
L 1059 3900 
L 1059 0 
L 475 0 
z
" transform="scale(0.015625)"/>
      </defs>
      <use xlink:href="#ArialMT-67"/>
      <use xlink:href="#ArialMT-72" transform="translate(55.615234 0)"/>
      <use xlink:href="#ArialMT-65" transform="translate(88.916016 0)"/>
      <use xlink:href="#ArialMT-65" transform="translate(144.53125 0)"/>
      <use xlink:href="#ArialMT-64" transform="translate(200.146484 0)"/>
      <use xlink:href="#ArialMT-79" transform="translate(255.761719 0)"/>
      <use xlink:href="#ArialMT-4c" transform="translate(305.761719 0)"/>
      <use xlink:href="#ArialMT-53" transform="translate(361.376953 0)"/>
      <use xlink:href="#ArialMT-20" transform="translate(428.076172 0)"/>
      <use xlink:href="#ArialMT-28" transform="translate(455.859375 0)"/>
      <use xlink:href="#ArialMT-4d" transform="translate(489.160156 0)"/>
      <use xlink:href="#ArialMT-65" transform="translate(572.460938 0)"/>
      <use xlink:href="#ArialMT-61" transform="translate(628.076172 0)"/>
      <use xlink:href="#ArialMT-6e" transform="translate(683.691406 0)"/>
      <use xlink:href="#ArialMT-29" transform="translate(739.306641 0)"/>
     </g>
    </g>
    <g id="line2d_25">
     <path d="M 99.9 81.720469 
L 110.9 81.720469 
L 121.9 81.720469 
" style="fill: none; stroke: #4daf4a; stroke-width: 1.5; stroke-linecap: round"/>
     <g>
      <use xlink:href="#m185a8d166d" x="110.9" y="81.720469" style="fill: #4daf4a; stroke: #4daf4a"/>
     </g>
    </g>
    <g id="text_22">
     <!-- heuristic (Mean) -->
     <g style="fill: #262626" transform="translate(130.7 85.570469) scale(0.11 -0.11)">
      <use xlink:href="#ArialMT-68"/>
      <use xlink:href="#ArialMT-65" transform="translate(55.615234 0)"/>
      <use xlink:href="#ArialMT-75" transform="translate(111.230469 0)"/>
      <use xlink:href="#ArialMT-72" transform="translate(166.845703 0)"/>
      <use xlink:href="#ArialMT-69" transform="translate(200.146484 0)"/>
      <use xlink:href="#ArialMT-73" transform="translate(222.363281 0)"/>
      <use xlink:href="#ArialMT-74" transform="translate(272.363281 0)"/>
      <use xlink:href="#ArialMT-69" transform="translate(300.146484 0)"/>
      <use xlink:href="#ArialMT-63" transform="translate(322.363281 0)"/>
      <use xlink:href="#ArialMT-20" transform="translate(372.363281 0)"/>
      <use xlink:href="#ArialMT-28" transform="translate(400.146484 0)"/>
      <use xlink:href="#ArialMT-4d" transform="translate(433.447266 0)"/>
      <use xlink:href="#ArialMT-65" transform="translate(516.748047 0)"/>
      <use xlink:href="#ArialMT-61" transform="translate(572.363281 0)"/>
      <use xlink:href="#ArialMT-6e" transform="translate(627.978516 0)"/>
      <use xlink:href="#ArialMT-29" transform="translate(683.59375 0)"/>
     </g>
    </g>
    <g id="line2d_26">
     <path d="M 99.9 97.543281 
L 110.9 97.543281 
L 121.9 97.543281 
" style="fill: none; stroke: #a65628; stroke-width: 1.5; stroke-linecap: round"/>
     <g>
      <use xlink:href="#mf0190d036c" x="110.9" y="97.543281" style="fill: #a65628; stroke: #a65628"/>
     </g>
    </g>
    <g id="text_23">
     <!-- antiheuristic (Mean) -->
     <g style="fill: #262626" transform="translate(130.7 101.393281) scale(0.11 -0.11)">
      <use xlink:href="#ArialMT-61"/>
      <use xlink:href="#ArialMT-6e" transform="translate(55.615234 0)"/>
      <use xlink:href="#ArialMT-74" transform="translate(111.230469 0)"/>
      <use xlink:href="#ArialMT-69" transform="translate(139.013672 0)"/>
      <use xlink:href="#ArialMT-68" transform="translate(161.230469 0)"/>
      <use xlink:href="#ArialMT-65" transform="translate(216.845703 0)"/>
      <use xlink:href="#ArialMT-75" transform="translate(272.460938 0)"/>
      <use xlink:href="#ArialMT-72" transform="translate(328.076172 0)"/>
      <use xlink:href="#ArialMT-69" transform="translate(361.376953 0)"/>
      <use xlink:href="#ArialMT-73" transform="translate(383.59375 0)"/>
      <use xlink:href="#ArialMT-74" transform="translate(433.59375 0)"/>
      <use xlink:href="#ArialMT-69" transform="translate(461.376953 0)"/>
      <use xlink:href="#ArialMT-63" transform="translate(483.59375 0)"/>
      <use xlink:href="#ArialMT-20" transform="translate(533.59375 0)"/>
      <use xlink:href="#ArialMT-28" transform="translate(561.376953 0)"/>
      <use xlink:href="#ArialMT-4d" transform="translate(594.677734 0)"/>
      <use xlink:href="#ArialMT-65" transform="translate(677.978516 0)"/>
      <use xlink:href="#ArialMT-61" transform="translate(733.59375 0)"/>
      <use xlink:href="#ArialMT-6e" transform="translate(789.208984 0)"/>
      <use xlink:href="#ArialMT-29" transform="translate(844.824219 0)"/>
     </g>
    </g>
    <g id="line2d_27">
     <path d="M 99.9 113.366094 
L 110.9 113.366094 
L 121.9 113.366094 
" style="fill: none; stroke: #999999; stroke-width: 1.5; stroke-linecap: round"/>
     <g>
      <use xlink:href="#m17d00851d9" x="110.9" y="113.366094" style="fill: #999999; stroke: #999999"/>
     </g>
    </g>
    <g id="text_24">
     <!-- iterativeImprovement (Mean) -->
     <g style="fill: #262626" transform="translate(130.7 117.216094) scale(0.11 -0.11)">
      <use xlink:href="#ArialMT-69"/>
      <use xlink:href="#ArialMT-74" transform="translate(22.216797 0)"/>
      <use xlink:href="#ArialMT-65" transform="translate(50 0)"/>
      <use xlink:href="#ArialMT-72" transform="translate(105.615234 0)"/>
      <use xlink:href="#ArialMT-61" transform="translate(138.916016 0)"/>
      <use xlink:href="#ArialMT-74" transform="translate(194.53125 0)"/>
      <use xlink:href="#ArialMT-69" transform="translate(222.314453 0)"/>
      <use xlink:href="#ArialMT-76" transform="translate(244.53125 0)"/>
      <use xlink:href="#ArialMT-65" transform="translate(294.53125 0)"/>
      <use xlink:href="#ArialMT-49" transform="translate(350.146484 0)"/>
      <use xlink:href="#ArialMT-6d" transform="translate(377.929688 0)"/>
      <use xlink:href="#ArialMT-70" transform="translate(461.230469 0)"/>
      <use xlink:href="#ArialMT-72" transform="translate(516.845703 0)"/>
      <use xlink:href="#ArialMT-6f" transform="translate(550.146484 0)"/>
      <use xlink:href="#ArialMT-76" transform="translate(605.761719 0)"/>
      <use xlink:href="#ArialMT-65" transform="translate(655.761719 0)"/>
      <use xlink:href="#ArialMT-6d" transform="translate(711.376953 0)"/>
      <use xlink:href="#ArialMT-65" transform="translate(794.677734 0)"/>
      <use xlink:href="#ArialMT-6e" transform="translate(850.292969 0)"/>
      <use xlink:href="#ArialMT-74" transform="translate(905.908203 0)"/>
      <use xlink:href="#ArialMT-20" transform="translate(933.691406 0)"/>
      <use xlink:href="#ArialMT-28" transform="translate(961.474609 0)"/>
      <use xlink:href="#ArialMT-4d" transform="translate(994.775391 0)"/>
      <use xlink:href="#ArialMT-65" transform="translate(1078.076172 0)"/>
      <use xlink:href="#ArialMT-61" transform="translate(1133.691406 0)"/>
      <use xlink:href="#ArialMT-6e" transform="translate(1189.306641 0)"/>
      <use xlink:href="#ArialMT-29" transform="translate(1244.921875 0)"/>
     </g>
    </g>
    <g id="line2d_28">
     <path d="M 99.9 129.188906 
L 110.9 129.188906 
L 121.9 129.188906 
" style="fill: none; stroke: #377eb8; stroke-width: 1.5; stroke-linecap: round"/>
     <g>
      <use xlink:href="#m063976039f" x="110.9" y="129.188906" style="fill: #377eb8; stroke: #377eb8"/>
     </g>
    </g>
    <g id="text_25">
     <!-- steepestLS (Mean) -->
     <g style="fill: #262626" transform="translate(130.7 133.038906) scale(0.11 -0.11)">
      <use xlink:href="#ArialMT-73"/>
      <use xlink:href="#ArialMT-74" transform="translate(50 0)"/>
      <use xlink:href="#ArialMT-65" transform="translate(77.783203 0)"/>
      <use xlink:href="#ArialMT-65" transform="translate(133.398438 0)"/>
      <use xlink:href="#ArialMT-70" transform="translate(189.013672 0)"/>
      <use xlink:href="#ArialMT-65" transform="translate(244.628906 0)"/>
      <use xlink:href="#ArialMT-73" transform="translate(300.244141 0)"/>
      <use xlink:href="#ArialMT-74" transform="translate(350.244141 0)"/>
      <use xlink:href="#ArialMT-4c" transform="translate(378.027344 0)"/>
      <use xlink:href="#ArialMT-53" transform="translate(433.642578 0)"/>
      <use xlink:href="#ArialMT-20" transform="translate(500.341797 0)"/>
      <use xlink:href="#ArialMT-28" transform="translate(528.125 0)"/>
      <use xlink:href="#ArialMT-4d" transform="translate(561.425781 0)"/>
      <use xlink:href="#ArialMT-65" transform="translate(644.726562 0)"/>
      <use xlink:href="#ArialMT-61" transform="translate(700.341797 0)"/>
      <use xlink:href="#ArialMT-6e" transform="translate(755.957031 0)"/>
      <use xlink:href="#ArialMT-29" transform="translate(811.572266 0)"/>
     </g>
    </g>
    <g id="line2d_29">
     <path d="M 99.9 145.011719 
L 110.9 145.011719 
L 121.9 145.011719 
" style="fill: none; stroke: #ff7f00; stroke-width: 1.5; stroke-linecap: round"/>
     <g>
      <use xlink:href="#md000d11a64" x="110.9" y="145.011719" style="fill: #ff7f00; stroke: #ff7f00"/>
     </g>
    </g>
    <g id="text_26">
     <!-- random (Mean) -->
     <g style="fill: #262626" transform="translate(130.7 148.861719) scale(0.11 -0.11)">
      <use xlink:href="#ArialMT-72"/>
      <use xlink:href="#ArialMT-61" transform="translate(33.300781 0)"/>
      <use xlink:href="#ArialMT-6e" transform="translate(88.916016 0)"/>
      <use xlink:href="#ArialMT-64" transform="translate(144.53125 0)"/>
      <use xlink:href="#ArialMT-6f" transform="translate(200.146484 0)"/>
      <use xlink:href="#ArialMT-6d" transform="translate(255.761719 0)"/>
      <use xlink:href="#ArialMT-20" transform="translate(339.0625 0)"/>
      <use xlink:href="#ArialMT-28" transform="translate(366.845703 0)"/>
      <use xlink:href="#ArialMT-4d" transform="translate(400.146484 0)"/>
      <use xlink:href="#ArialMT-65" transform="translate(483.447266 0)"/>
      <use xlink:href="#ArialMT-61" transform="translate(539.0625 0)"/>
      <use xlink:href="#ArialMT-6e" transform="translate(594.677734 0)"/>
      <use xlink:href="#ArialMT-29" transform="translate(650.292969 0)"/>
     </g>
    </g>
   </g>
  </g>
 </g>
 <defs>
  <clipPath id="p6cff9e2ffa">
   <rect x="90" y="51.84" width="558" height="332.64"/>
  </clipPath>
 </defs>
</svg>
